<svg xmlns="http://www.w3.org/2000/svg" width="1200" height="59" fill="none"> 
  <path fill="#fff" fill-rule="evenodd" d="M 250.15 18.72 C 250.299 18.72 250.633 18.735 251.025 18.753 C 251.579 18.779 252.248 18.81 252.67 18.81 C 253.155 18.81 253.608 18.794 254.14 18.776 C 254.892 18.751 255.799 18.72 257.17 18.72 C 259.15 18.72 260.77 19.26 261.94 20.25 C 263.38 21.42 264.1 23.22 264.1 25.29 C 264.1 28.26 262.75 29.97 261.31 30.96 C 259.87 31.95 258.16 32.49 255.73 32.49 C 254.38 32.49 252.13 32.49 250.24 32.4 C 250.15 32.22 250.42 31.5 250.6 31.41 C 250.78 31.38 250.92 31.36 251.037 31.343 C 251.27 31.31 251.41 31.29 251.59 31.23 C 251.95 31.05 252.13 30.87 252.13 30.15 C 252.188 29.273 252.171 28.284 252.151 27.18 C 252.141 26.583 252.13 25.953 252.13 25.29 L 252.13 20.61 C 252.04 19.89 251.77 19.71 251.14 19.62 C 250.78 19.53 250.42 19.44 249.97 19.35 C 249.61 19.44 250.06 18.81 250.15 18.72 Z M 254.56 30.96 C 255.01 31.32 255.91 31.5 256.72 31.5 C 257.8 31.5 258.88 31.23 259.96 30.42 C 261.04 29.52 261.67 27.99 261.67 25.74 C 261.67 23.58 260.77 21.78 259.06 20.61 C 258.07 19.98 256.81 19.71 255.37 19.71 C 254.92 19.71 254.47 19.71 254.29 19.89 C 254.2 19.89 254.02 20.16 254.02 20.25 L 254.02 30.15 C 254.053 30.183 254.098 30.264 254.155 30.367 C 254.254 30.545 254.389 30.789 254.56 30.96 Z M 266.326 18.74 C 266.214 18.729 266.102 18.723 265.99 18.72 C 265.81 18.81 265.45 19.53 265.63 19.53 C 265.81 19.575 266.057 19.62 266.305 19.665 C 266.552 19.71 266.8 19.755 266.98 19.8 C 267.43 19.89 267.7 20.16 267.7 20.79 L 267.7 30.42 C 267.61 31.14 267.52 31.32 266.98 31.5 C 266.62 31.68 266.35 31.68 265.99 31.68 C 265.81 31.86 265.45 32.58 265.63 32.67 C 266.645 32.61 268.176 32.67 269.381 32.716 C 269.991 32.739 270.517 32.76 270.85 32.76 C 272.11 32.76 273.37 32.58 274.45 32.13 C 276.16 31.41 277.33 30.15 277.33 28.26 C 277.33 26.37 275.8 25.29 274.18 24.93 C 274.09 24.93 274.09 24.84 274.18 24.84 C 275.26 24.3 276.25 23.31 276.25 22.05 C 276.25 19.44 273.91 18.81 272.2 18.81 L 268.24 18.81 C 267.235 18.81 266.668 18.766 266.326 18.74 Z M 274.99 28.62 C 274.99 26.64 273.55 25.56 271.03 25.56 L 269.95 25.56 C 269.86 25.56 269.77 25.65 269.77 25.74 L 269.77 30.24 C 269.77 30.6 270.13 31.23 270.49 31.32 C 270.85 31.59 271.57 31.59 272.2 31.59 C 273.55 31.5 274.99 30.69 274.99 28.62 Z M 269.59 20.16 C 269.59 20.07 269.77 19.8 269.86 19.8 C 269.997 19.765 270.148 19.744 270.277 19.726 C 270.485 19.696 270.636 19.676 270.58 19.62 C 272.56 19.62 273.91 20.43 273.91 22.32 C 273.91 23.22 273.55 23.94 272.83 24.3 C 272.65 24.39 272.2 24.57 271.3 24.57 L 269.77 24.57 C 269.68 24.57 269.59 24.39 269.59 24.39 L 269.59 20.16 Z M 186.34 32.49 C 186.34 32.452 186.324 32.4 186.306 32.337 C 186.281 32.25 186.25 32.145 186.25 32.04 C 186.25 31.86 186.25 31.77 186.34 31.68 C 186.417 31.66 186.49 31.642 186.559 31.623 C 186.815 31.555 187.028 31.499 187.24 31.499 C 187.6 31.41 187.78 31.14 187.87 30.599 C 187.96 29.43 187.96 27.27 187.87 25.56 C 187.87 25.38 187.87 25.2 187.6 25.02 C 187.327 24.814 187.053 24.714 186.741 24.598 C 186.642 24.561 186.538 24.523 186.43 24.48 C 186.25 24.39 186.07 24.3 186.07 24.12 C 186.07 23.94 186.25 23.85 186.43 23.76 C 187.15 23.67 188.77 23.31 189.49 22.95 C 189.49 22.95 189.58 23.13 189.58 23.31 L 189.58 24.39 C 189.58 24.48 189.67 24.57 189.76 24.57 L 189.94 24.57 C 191.2 23.58 192.37 23.22 192.91 23.22 C 193.9 23.22 194.62 23.67 195.16 24.57 C 195.16 24.66 195.25 24.66 195.34 24.66 C 195.34 24.66 195.43 24.66 195.52 24.57 C 196.6 23.58 197.86 23.13 198.67 23.13 C 200.47 23.13 201.55 24.48 201.55 26.73 L 201.55 30.69 C 201.55 30.78 201.73 31.05 201.91 31.14 C 202.27 31.32 202.63 31.41 202.99 31.5 C 202.99 31.68 202.99 32.22 202.81 32.31 L 200.74 32.31 C 199.57 32.31 198.94 32.31 198.31 32.4 C 198.31 32.347 198.302 32.272 198.294 32.188 C 198.273 31.981 198.246 31.718 198.31 31.59 C 198.421 31.562 198.515 31.534 198.599 31.509 L 198.6 31.509 C 198.79 31.453 198.933 31.41 199.12 31.41 C 199.48 31.23 199.66 31.05 199.66 30.51 C 199.66 30.436 199.664 30.243 199.669 29.976 C 199.689 28.95 199.731 26.832 199.66 26.19 C 199.48 25.38 198.94 24.48 197.68 24.48 C 197.14 24.48 196.42 24.75 195.7 25.29 C 195.7 25.29 195.61 25.47 195.61 25.56 C 195.7 25.92 195.7 26.55 195.7 27.09 L 195.7 30.69 C 195.7 31.103 195.928 31.213 196.105 31.298 L 196.15 31.32 C 196.33 31.32 196.42 31.32 196.51 31.41 C 196.643 31.41 196.777 31.459 196.947 31.521 L 197.14 31.59 L 197.14 32.13 C 197.14 32.236 197.109 32.28 197.083 32.315 C 197.065 32.341 197.05 32.362 197.05 32.399 L 192.55 32.399 C 192.55 32.399 192.46 32.22 192.46 32.04 C 192.46 31.86 192.46 31.68 192.55 31.68 L 192.91 31.68 C 193.18 31.68 193.36 31.59 193.54 31.5 C 193.9 31.41 193.99 31.14 193.99 30.78 C 194.08 29.79 194.17 27 193.99 26.28 C 193.72 25.2 193 24.57 192.1 24.57 C 191.47 24.57 190.75 24.93 190.12 25.38 C 190.03 25.47 189.94 25.74 189.94 25.83 L 189.94 30.87 C 189.94 31.14 190.03 31.41 190.48 31.5 C 190.517 31.5 190.57 31.515 190.632 31.533 C 190.719 31.559 190.825 31.59 190.93 31.59 L 191.29 31.68 C 191.29 31.86 191.29 32.31 191.2 32.49 L 186.34 32.49 Z M 208.75 32.67 C 205.42 32.67 204.16 30.24 204.16 27.9 C 204.16 26.37 204.88 25.02 206.14 24.21 C 207.13 23.58 208.21 23.22 209.2 23.22 C 211.81 23.22 213.52 25.02 213.52 27.72 C 213.52 29.52 212.8 30.96 211.45 31.77 C 210.82 32.31 209.65 32.67 208.75 32.67 Z M 207.31 24.66 C 207.58 24.39 208.03 24.3 208.39 24.3 C 210.28 24.3 211.54 26.01 211.72 28.62 C 211.72 29.97 211.45 30.96 210.82 31.41 C 210.46 31.68 210.01 31.86 209.47 31.86 C 207.49 31.86 206.23 30.06 206.23 27.45 C 206.23 26.1 206.5 25.11 207.31 24.66 Z M 243.4 32.67 C 240.07 32.67 238.81 30.24 238.81 27.9 C 238.81 26.37 239.53 25.02 240.79 24.21 C 241.78 23.58 242.86 23.22 243.85 23.22 C 246.46 23.22 248.17 25.02 248.17 27.72 C 248.17 29.52 247.45 30.96 246.1 31.77 C 245.38 32.31 244.3 32.67 243.4 32.67 Z M 241.87 24.66 C 242.14 24.39 242.59 24.3 242.95 24.3 C 244.84 24.3 246.19 26.01 246.28 28.62 C 246.28 29.97 246.01 30.96 245.38 31.41 C 245.02 31.68 244.57 31.86 244.03 31.86 C 242.05 31.86 240.79 30.06 240.79 27.45 C 240.79 26.1 241.06 25.11 241.87 24.66 Z M 231.79 37.98 C 230.62 37.98 229.72 37.71 229 37.08 C 228.329 36.645 227.923 35.9 227.92 35.1 C 227.92 34.92 227.92 34.47 228.28 34.11 C 228.55 33.84 229 33.39 230.08 32.67 C 230.08 32.67 230.17 32.67 230.17 32.58 C 230.17 32.49 230.17 32.49 230.08 32.49 C 229.193 32.168 228.956 31.628 228.852 31.39 C 228.842 31.366 228.831 31.343 228.82 31.32 C 228.82 31.285 228.817 31.249 228.812 31.214 C 228.798 31.1 228.789 31.03 229 30.96 C 229.09 30.915 229.181 30.847 229.271 30.779 C 229.361 30.712 229.45 30.644 229.54 30.599 C 229.688 30.493 229.845 30.398 230.008 30.317 C 230.2 30.216 230.379 30.121 230.53 29.97 L 230.53 29.79 C 230.53 29.79 230.53 29.7 230.44 29.7 C 229.09 29.25 228.37 28.26 228.37 26.64 C 228.37 25.65 228.82 24.75 229.63 24.12 C 230.17 23.67 231.52 23.13 232.42 23.13 L 232.51 23.13 C 233.22 23.13 233.652 23.268 234.105 23.413 C 234.284 23.471 234.466 23.529 234.67 23.58 C 235.03 23.76 235.48 23.85 235.93 23.85 C 236.74 23.85 237.01 23.58 237.28 23.31 C 237.28 23.31 237.37 23.49 237.37 23.67 C 237.37 23.85 237.28 24.3 237.1 24.66 C 236.92 24.93 236.56 25.02 236.2 25.02 L 236.11 25.02 C 235.75 25.02 235.57 24.93 235.57 24.93 L 235.48 24.93 L 235.48 25.11 C 235.48 25.2 235.525 25.38 235.57 25.56 C 235.615 25.74 235.66 25.92 235.66 26.01 C 235.66 27.54 234.94 28.35 234.31 28.89 C 233.59 29.43 232.87 29.79 232.06 29.88 L 231.43 29.88 C 231.25 29.88 230.89 30.15 230.89 30.51 C 230.89 30.87 231.07 31.23 231.88 31.23 L 232.42 31.23 C 232.595 31.245 232.78 31.26 232.97 31.274 C 233.948 31.352 235.057 31.439 235.66 31.59 C 236.65 31.95 237.1 32.67 237.1 33.75 C 237.1 35.19 236.02 36.54 234.31 37.35 C 233.68 37.8 232.69 37.98 231.79 37.98 Z M 230.71 33.21 C 230.89 33.12 231.25 32.94 231.61 32.94 C 232.87 32.94 233.77 33.03 234.4 33.39 C 235.12 33.75 235.48 34.11 235.48 34.92 C 235.48 36 234.58 37.08 232.6 37.08 C 231.61 37.08 230.89 36.81 230.26 36.27 C 229.81 35.82 229.54 35.46 229.54 34.83 C 229.54 34.29 229.81 33.75 230.71 33.21 Z M 231.79 24.21 C 230.71 24.21 230.17 25.11 230.17 26.28 C 230.17 27.54 230.8 29.07 232.33 29.07 C 232.69 29.07 233.14 28.89 233.32 28.71 C 233.68 28.35 233.95 27.63 233.95 26.91 C 233.95 25.2 233.23 24.21 231.79 24.21 Z M 225.13 31.41 C 225.49 31.59 225.85 31.68 226.39 31.77 C 226.48 31.86 226.48 32.49 225.94 32.58 C 225.812 32.58 225.626 32.569 225.387 32.554 C 224.792 32.513 224.196 32.492 223.6 32.49 C 223.049 32.49 222.638 32.518 222.273 32.543 C 221.981 32.563 221.72 32.58 221.44 32.58 C 221.35 32.4 221.26 31.77 221.44 31.59 C 221.89 31.59 222.25 31.5 222.43 31.41 C 222.7 31.32 222.79 31.14 222.79 30.33 C 222.79 28.89 222.79 27.27 222.7 26.37 C 222.7 26.1 222.52 25.56 222.07 25.2 C 221.8 25.02 221.35 24.75 220.72 24.75 C 220.09 24.75 219.37 25.11 218.92 25.47 L 218.874 25.558 C 218.78 25.733 218.65 25.975 218.65 26.28 L 218.65 30.96 C 218.65 31.41 218.74 31.59 219.1 31.68 C 219.37 31.77 219.73 31.86 220.09 31.86 C 220.18 32.04 220.18 32.67 220 32.85 C 219.915 32.85 219.784 32.84 219.606 32.828 C 218.988 32.783 218.369 32.76 217.75 32.76 C 217.169 32.76 216.512 32.797 216.047 32.824 C 215.793 32.838 215.596 32.849 215.5 32.849 C 215.32 32.67 215.32 32.04 215.5 31.86 C 215.764 31.86 215.931 31.812 216.142 31.75 C 216.22 31.728 216.304 31.704 216.4 31.68 C 216.76 31.59 216.94 31.41 216.94 30.87 L 216.94 25.83 C 216.94 25.794 216.944 25.758 216.947 25.722 C 216.962 25.577 216.976 25.434 216.76 25.29 C 216.67 25.11 216.22 24.93 215.68 24.75 C 215.14 24.57 215.32 24.12 215.77 24.03 C 216.4 24.03 218.2 23.58 218.83 23.22 C 218.83 23.22 219.01 23.22 219.01 23.58 C 218.92 23.85 218.92 24.3 218.92 24.57 C 218.92 24.84 219.1 24.66 219.1 24.66 C 220 23.85 221.17 23.22 222.07 23.22 C 223.06 23.22 223.78 23.58 224.32 24.39 C 224.77 25.11 224.95 26.01 224.95 27.09 L 224.95 31.05 C 224.95 31.14 225.04 31.41 225.13 31.41 Z" clip-rule="evenodd" style="fill-opacity: 0.5;"/>
  <path fill="#fff" d="M 61.488 18.238 L 61.488 21.313 L 68.798 21.313 C 68.574 23.038 68.002 24.3 67.132 25.188 C 66.062 26.263 64.397 27.438 61.488 27.438 C 56.987 27.438 53.468 23.788 53.468 19.263 C 53.468 14.737 56.987 11.087 61.488 11.087 C 63.912 11.087 65.69 12.05 66.995 13.287 L 69.145 11.125 C 67.332 9.35 64.895 8 61.489 8 C 55.32 8 50.137 13.05 50.137 19.25 C 50.137 25.45 55.32 30.5 61.487 30.5 C 64.819 30.5 67.331 29.4 69.295 27.35 C 71.309 25.325 71.943 22.462 71.943 20.162 C 71.943 19.45 71.893 18.788 71.782 18.238 L 61.488 18.238 Z M 81.081 15.737 C 77.091 15.737 73.833 18.787 73.833 23 C 73.833 27.175 77.09 30.262 81.081 30.262 C 85.071 30.262 88.329 27.187 88.329 23 C 88.329 18.787 85.072 15.737 81.081 15.737 Z M 81.081 27.4 C 78.893 27.4 77.003 25.587 77.003 23 C 77.003 20.387 78.893 18.6 81.081 18.6 C 83.269 18.6 85.159 20.387 85.159 23 C 85.159 25.587 83.269 27.4 81.081 27.4 Z M 116.613 17.362 L 116.501 17.362 C 115.792 16.512 114.425 15.737 112.697 15.737 C 109.091 15.737 105.946 18.9 105.946 23 C 105.946 27.075 109.091 30.262 112.696 30.262 C 114.425 30.262 115.792 29.487 116.501 28.612 L 116.613 28.612 L 116.613 29.625 C 116.613 32.4 115.133 33.887 112.759 33.887 C 110.819 33.887 109.614 32.487 109.116 31.3 L 106.356 32.45 C 107.152 34.375 109.253 36.737 112.759 36.737 C 116.476 36.737 119.622 34.537 119.622 29.175 L 119.622 16.112 L 116.613 16.112 L 116.613 17.362 Z M 112.97 27.4 C 110.782 27.4 109.116 25.525 109.116 23 C 109.116 20.437 110.782 18.6 112.97 18.6 C 115.133 18.6 116.824 20.475 116.824 23.025 C 116.837 25.562 115.134 27.4 112.97 27.4 Z M 97.243 15.737 C 93.253 15.737 89.995 18.787 89.995 23 C 89.995 27.175 93.252 30.262 97.243 30.262 C 101.234 30.262 104.491 27.187 104.491 23 C 104.491 18.787 101.234 15.737 97.243 15.737 Z M 97.243 27.4 C 95.055 27.4 93.165 25.587 93.165 23 C 93.165 20.387 95.055 18.6 97.243 18.6 C 99.431 18.6 101.321 20.387 101.321 23 C 101.321 25.587 99.431 27.4 97.243 27.4 Z M 122.108 8.3 L 125.228 8.3 L 125.228 30.262 L 122.108 30.262 L 122.108 8.3 Z M 134.864 27.4 C 133.248 27.4 132.104 26.662 131.358 25.2 L 141.018 21.187 L 140.695 20.362 C 140.098 18.737 138.258 15.737 134.515 15.737 C 130.798 15.737 127.703 18.675 127.703 23 C 127.703 27.075 130.761 30.262 134.863 30.262 C 138.171 30.262 140.085 28.225 140.881 27.05 L 138.42 25.4 C 137.6 26.6 136.481 27.4 134.865 27.4 L 134.864 27.4 Z M 134.64 18.462 C 135.92 18.462 137.015 19.125 137.375 20.062 L 130.848 22.775 C 130.848 19.725 132.998 18.462 134.64 18.462 Z" style="fill-opacity: 0.5;"/>
  <path fill="#fff" fill-rule="evenodd" d="M 932.295 22.062 C 933.465 22.422 934.455 22.962 935.355 23.862 C 936.165 24.672 936.615 25.842 936.255 26.382 L 936.255 27.282 C 936.165 28.182 935.895 28.992 935.355 29.712 C 934.725 30.522 933.915 31.152 932.925 31.512 C 931.755 32.052 930.405 32.232 929.145 32.322 C 927.525 32.322 925.905 32.322 924.465 31.692 C 923.655 31.332 922.845 30.882 922.215 30.252 C 921.495 29.442 921.045 28.542 920.775 27.462 C 919.875 29.172 918.345 30.522 916.545 31.422 C 914.745 32.322 912.495 32.592 910.425 32.052 C 908.716 31.692 906.916 30.702 905.745 29.352 C 905.385 28.992 905.025 28.632 904.755 28.182 C 904.575 29.082 904.125 29.802 903.495 30.432 C 902.775 31.062 902.055 31.512 901.155 31.782 C 900.097 32.223 898.952 32.318 897.89 32.407 L 897.825 32.412 C 896.746 32.412 895.666 32.412 894.585 32.232 C 893.416 32.052 892.155 31.602 891.166 30.612 C 890.625 30.162 890.266 29.532 889.905 28.812 L 889.905 31.782 C 889.905 31.962 889.815 32.142 889.635 32.142 L 886.305 32.142 C 886.215 32.142 886.035 32.052 886.035 31.872 C 886.035 31.71 886.047 31.572 886.057 31.444 C 886.076 31.217 886.093 31.023 886.035 30.792 C 885.945 30.702 885.855 30.792 885.765 30.882 C 884.415 31.962 882.705 32.592 880.995 32.592 C 879.285 32.592 877.485 32.142 876.045 31.152 C 874.515 30.162 873.345 28.722 872.535 27.102 C 871.995 26.022 871.815 24.852 871.725 23.772 L 871.725 22.692 C 871.725 22.332 871.725 21.792 871.905 21.252 C 872.272 19.552 873.115 17.991 874.335 16.752 C 875.325 15.672 876.585 14.862 878.025 14.322 C 878.835 13.962 879.645 13.872 880.545 13.782 L 881.445 13.782 C 882.975 13.872 884.505 14.322 885.765 15.312 C 885.81 15.312 885.832 15.334 885.866 15.368 C 885.9 15.402 885.945 15.447 886.035 15.492 C 886.125 15.492 886.125 15.402 886.125 15.312 L 886.125 14.412 C 886.125 14.322 886.215 14.142 886.395 14.142 L 889.635 14.142 C 889.725 14.142 889.815 14.142 889.905 14.232 C 889.995 14.322 889.995 14.412 889.995 14.502 L 889.995 17.562 C 890.062 17.427 890.124 17.292 890.186 17.157 C 890.372 16.752 890.557 16.347 890.895 15.942 C 891.615 15.132 892.605 14.502 893.685 14.232 C 894.585 13.962 895.485 13.872 896.475 13.782 L 897.735 13.782 C 898.995 13.872 900.435 14.232 901.515 14.862 C 902.415 15.402 903.135 16.032 903.675 16.932 C 904.125 17.562 904.305 18.282 904.485 19.002 C 905.295 17.382 906.735 16.032 908.445 15.042 C 909.525 14.412 910.965 14.052 912.225 13.962 L 913.305 13.962 C 915.285 14.142 917.175 14.772 918.615 15.942 C 919.785 16.842 920.685 18.012 921.315 19.272 C 921.405 18.282 921.495 17.382 922.035 16.572 C 922.575 15.852 923.295 15.132 924.195 14.772 C 925.275 14.232 926.715 14.052 927.975 13.962 L 929.145 13.962 C 930.135 13.962 931.125 14.142 932.205 14.592 C 933.285 15.042 934.275 15.672 934.905 16.662 C 935.445 17.562 935.805 18.372 935.985 19.362 C 936.075 19.452 935.895 19.632 935.715 19.632 L 932.295 19.632 C 932.205 19.632 932.025 19.452 932.025 19.272 C 931.935 18.732 931.665 18.102 931.125 17.652 C 930.585 17.112 929.865 16.932 929.145 16.842 C 928.425 16.752 927.615 16.842 926.985 17.112 L 926.821 17.232 C 926.498 17.466 926.148 17.719 925.995 18.102 C 925.635 18.732 925.725 19.542 926.265 20.082 C 926.535 20.442 927.075 20.712 927.615 20.892 C 928.366 21.157 929.161 21.314 929.946 21.468 C 930.759 21.628 931.562 21.788 932.295 22.062 Z M 903.765 23.682 C 902.865 22.872 901.875 22.422 900.705 22.152 C 899.89 21.88 898.972 21.66 898.106 21.452 L 898.105 21.452 C 897.825 21.384 897.549 21.318 897.285 21.252 C 896.655 21.072 896.115 20.892 895.485 20.532 C 895.035 20.352 894.675 19.902 894.495 19.452 C 894.315 18.822 894.315 18.372 894.675 17.832 C 894.945 17.382 895.395 17.202 895.845 17.022 C 896.475 16.842 897.105 16.842 897.825 16.842 C 898.455 16.932 899.175 17.202 899.625 17.742 C 900.075 18.192 900.345 18.822 900.525 19.272 C 900.525 19.452 900.705 19.632 900.795 19.632 L 904.215 19.632 C 903.945 20.892 903.675 22.242 903.765 23.682 Z M 915.375 28.722 C 916.275 28.272 916.995 27.642 917.445 26.742 C 917.891 26.041 918.067 25.158 918.227 24.352 C 918.293 24.02 918.356 23.701 918.435 23.412 C 918.345 22.332 918.165 21.342 917.625 20.352 C 917.085 19.362 916.365 18.642 915.375 18.192 C 914.385 17.742 913.485 17.652 912.495 17.742 C 911.235 17.832 910.245 18.282 909.435 19.182 C 908.625 19.992 908.175 21.342 907.995 22.512 C 907.815 23.592 907.905 24.762 908.265 25.842 C 908.625 26.652 908.985 27.462 909.705 28.092 C 910.335 28.542 911.145 28.992 912.135 29.172 C 913.215 29.352 914.295 29.262 915.375 28.722 Z M 929.685 29.712 C 930.405 29.622 931.035 29.442 931.575 28.992 C 932.295 28.452 932.475 27.732 932.655 26.832 C 932.565 26.382 932.295 26.022 931.935 25.752 C 931.395 25.302 930.765 25.032 930.135 24.852 C 929.505 24.695 928.886 24.57 928.279 24.448 C 927.149 24.221 926.058 24.002 925.005 23.592 C 924.016 23.232 923.025 22.782 922.395 21.882 C 922.575 23.322 922.485 24.942 921.945 26.382 L 924.735 26.382 C 924.915 26.382 925.185 26.382 925.275 26.562 C 925.275 26.832 925.275 27.192 925.455 27.462 C 925.725 28.092 926.175 28.812 926.895 29.172 C 927.795 29.712 928.695 29.802 929.685 29.712 Z M 899.535 29.532 C 899.985 29.262 900.435 28.992 900.705 28.452 C 900.975 28.002 901.065 27.372 900.975 26.832 C 900.795 26.202 900.345 25.752 899.715 25.482 C 898.725 24.942 897.645 24.672 896.565 24.492 C 895.215 24.312 893.775 23.952 892.515 23.322 C 891.885 22.962 891.255 22.512 890.805 21.882 C 890.625 21.702 890.525 21.442 890.425 21.182 C 890.375 21.052 890.325 20.922 890.265 20.802 L 890.265 26.562 C 891.345 26.652 892.515 26.652 893.595 26.652 C 893.685 26.652 893.865 26.742 893.865 26.922 C 894.045 27.642 894.315 28.272 894.945 28.812 C 895.665 29.532 896.655 29.802 897.645 29.802 C 898.275 29.802 898.905 29.802 899.535 29.532 Z M 885.495 26.922 C 884.955 27.822 884.235 28.452 883.245 28.902 C 882.075 29.442 880.545 29.532 879.375 28.992 C 878.295 28.542 877.395 27.822 876.765 26.742 C 876.045 25.572 875.775 24.042 875.865 22.782 C 876.045 21.342 876.495 19.992 877.485 19.002 C 878.205 18.282 879.105 17.832 880.185 17.562 C 881.265 17.382 882.435 17.562 883.515 18.102 C 884.415 18.552 885.045 19.272 885.495 20.172 C 885.945 21.162 886.125 22.152 886.125 23.232 C 886.305 24.492 886.215 25.842 885.495 26.922 Z M 874.786 33.942 L 875.236 33.942 L 875.236 37.812 L 874.786 37.812 L 874.786 37.362 C 874.606 37.722 874.156 37.992 873.706 37.902 C 873.256 37.902 872.895 37.812 872.625 37.542 C 871.906 37.002 871.906 35.922 872.536 35.292 C 873.256 34.752 874.245 34.842 874.786 35.472 L 874.786 33.942 Z M 873.075 37.452 C 873.436 37.722 874.156 37.632 874.515 37.272 C 874.875 36.912 874.965 36.192 874.515 35.742 C 874.336 35.382 873.795 35.202 873.345 35.382 C 873.075 35.472 872.895 35.742 872.715 36.012 C 872.536 36.462 872.625 37.092 873.075 37.452 Z" clip-rule="evenodd" style="fill-opacity: 0.5;"/>
  <path fill="#fff" d="M 876.495 33.942 C 876.675 33.852 876.945 34.122 876.855 34.212 C 876.855 34.392 876.495 34.572 876.315 34.392 C 876.225 34.302 876.315 34.032 876.495 33.942 Z M 898.455 34.032 C 898.725 33.852 899.085 33.852 899.535 33.852 C 899.535 34.032 899.445 34.122 899.445 34.212 C 899.264 34.212 898.995 34.122 898.814 34.302 C 898.635 34.482 898.635 34.752 898.635 34.932 L 899.264 34.932 L 899.264 35.292 L 898.635 35.292 L 898.635 37.812 L 898.185 37.812 L 898.185 35.292 L 897.555 35.292 L 897.555 34.932 L 898.185 34.932 C 898.095 34.752 898.185 34.392 898.455 34.032 Z M 906.465 33.942 L 906.915 33.942 L 906.915 35.472 C 907.095 35.202 907.545 34.932 907.995 34.932 C 908.355 34.932 908.715 35.022 908.895 35.292 C 909.075 35.562 909.075 36.012 909.075 36.372 L 909.075 37.812 L 908.625 37.812 L 908.625 36.282 C 908.625 36.012 908.625 35.652 908.445 35.472 C 908.175 35.202 907.635 35.292 907.365 35.472 C 907.095 35.652 907.005 36.102 907.005 36.462 L 907.005 37.902 L 906.555 37.902 C 906.465 36.552 906.465 35.292 906.465 33.942 Z M 910.065 33.942 C 910.245 33.762 910.605 34.032 910.515 34.212 C 910.515 34.392 910.245 34.572 909.975 34.392 C 909.885 34.392 909.885 34.032 910.065 33.942 Z M 929.145 33.942 C 929.325 33.762 929.686 34.032 929.595 34.212 C 929.595 34.392 929.236 34.572 929.055 34.392 C 928.875 34.302 928.965 34.032 929.145 33.942 Z M 927.435 37.992 L 927.885 37.992 L 927.885 34.032 L 927.435 34.032 L 927.435 37.992 Z M 878.115 35.292 C 878.386 35.022 878.836 35.022 879.195 35.112 C 879.465 35.202 879.736 35.292 879.825 35.652 C 879.645 35.742 879.645 35.832 879.465 35.922 C 879.286 35.472 878.656 35.382 878.386 35.742 C 878.206 35.922 878.206 36.282 878.475 36.372 C 878.836 36.552 879.375 36.552 879.645 36.822 C 880.095 37.092 880.006 37.902 879.465 38.082 C 879.195 38.262 878.836 38.262 878.386 38.262 C 878.025 38.262 877.665 38.082 877.486 37.632 C 877.665 37.542 877.665 37.452 877.845 37.452 C 878.025 37.902 878.656 38.082 879.015 37.812 C 879.195 37.632 879.286 37.362 879.195 37.182 C 879.015 37.002 878.565 37.002 878.386 36.912 C 878.115 36.822 877.756 36.732 877.665 36.372 C 877.756 35.742 877.845 35.382 878.115 35.292 Z M 880.905 35.472 C 881.535 34.842 882.614 34.842 883.155 35.472 C 882.975 35.562 882.975 35.652 882.795 35.742 C 882.525 35.202 881.714 35.202 881.355 35.652 C 880.905 36.192 880.905 37.002 881.445 37.452 C 881.895 37.812 882.525 37.722 882.795 37.272 C 882.975 37.362 882.975 37.452 883.155 37.542 C 882.975 37.722 882.614 37.992 882.255 38.082 C 881.895 38.082 881.535 38.082 881.175 37.902 C 880.545 37.272 880.455 36.102 880.905 35.472 Z" style="fill-opacity: 0.5;"/>
  <path fill="#fff" fill-rule="evenodd" d="M 884.775 35.022 C 885.225 34.932 885.764 35.022 886.214 35.292 C 886.755 35.652 886.935 36.462 886.755 37.002 C 886.575 37.542 886.214 37.902 885.675 37.992 L 884.864 37.992 C 884.414 37.902 883.964 37.632 883.785 37.182 C 883.605 36.732 883.605 36.102 883.964 35.652 C 884.144 35.292 884.505 35.112 884.775 35.022 Z M 884.594 37.452 C 884.955 37.722 885.675 37.722 886.035 37.272 C 886.485 36.912 886.485 36.102 885.944 35.742 C 885.764 35.472 885.225 35.292 884.864 35.472 C 884.634 35.472 884.469 35.733 884.315 35.978 C 884.288 36.02 884.262 36.062 884.235 36.102 C 884.055 36.462 884.144 37.092 884.594 37.452 Z M 892.605 35.382 C 892.965 35.652 893.055 36.192 893.055 36.642 C 892.155 36.642 891.435 36.642 890.715 36.462 C 890.804 36.912 891.075 37.362 891.525 37.542 C 891.884 37.722 892.425 37.452 892.695 37.092 C 892.785 37.136 892.83 37.182 892.875 37.227 C 892.92 37.272 892.965 37.317 893.055 37.362 C 892.785 37.722 892.425 37.992 891.975 37.992 C 891.918 37.992 891.852 38.001 891.783 38.01 C 891.633 38.03 891.468 38.053 891.345 37.992 C 890.805 37.812 890.445 37.452 890.265 37.002 C 889.995 36.372 890.265 35.562 890.895 35.202 C 891.435 34.848 892.15 34.924 892.605 35.382 Z M 891.615 35.292 C 891.165 35.382 890.715 35.742 890.625 36.282 C 891.255 36.282 891.885 36.282 892.605 36.192 C 892.605 35.922 892.605 35.742 892.425 35.562 C 892.245 35.382 891.885 35.292 891.615 35.292 Z" clip-rule="evenodd" style="fill-opacity: 0.5;"/>
  <path fill="#fff" d="M 894.765 35.022 C 894.945 34.842 895.305 34.842 895.575 34.932 C 895.575 35.112 895.485 35.202 895.485 35.382 L 894.855 35.382 C 894.495 35.562 894.225 35.922 894.225 36.282 L 894.225 37.902 L 893.775 37.902 L 893.775 35.022 L 894.225 35.022 L 894.225 35.562 C 894.405 35.292 894.495 35.202 894.765 35.022 Z" style="fill-opacity: 0.5;"/>
  <path fill="#fff" fill-rule="evenodd" d="M 902.144 35.022 L 902.594 35.022 C 902.594 36.012 902.594 37.002 902.505 37.902 L 902.055 37.902 L 902.055 37.632 C 902.018 37.651 901.981 37.67 901.945 37.69 C 901.774 37.783 901.554 37.903 901.335 37.903 C 901.064 37.903 900.614 37.903 900.255 37.722 C 899.444 37.182 899.355 36.012 899.985 35.382 C 900.614 34.752 901.514 34.752 902.144 35.292 L 902.144 35.022 Z M 900.435 37.362 C 900.705 37.632 901.425 37.632 901.785 37.362 C 902.235 37.002 902.325 36.192 901.964 35.742 C 901.785 35.382 901.244 35.202 900.794 35.382 C 900.566 35.382 900.401 35.642 900.246 35.885 C 900.22 35.928 900.192 35.97 900.164 36.012 C 899.894 36.462 900.075 37.002 900.435 37.362 Z" clip-rule="evenodd" style="fill-opacity: 0.5;"/>
  <path fill="#fff" d="M 903.675 35.292 C 903.945 35.022 904.485 34.932 904.755 35.022 C 905.025 35.112 905.295 35.202 905.385 35.562 C 905.205 35.652 905.205 35.742 905.025 35.832 C 904.845 35.382 904.215 35.292 903.945 35.652 C 903.765 35.832 903.765 36.192 904.035 36.282 C 904.485 36.462 905.025 36.462 905.295 36.822 C 905.475 37.002 905.565 37.452 905.475 37.722 C 905.295 38.082 904.935 38.352 904.575 38.352 C 904.305 38.352 903.945 38.352 903.765 38.262 C 903.585 38.172 903.405 37.992 903.225 37.812 C 903.405 37.722 903.405 37.632 903.585 37.632 C 903.765 38.082 904.485 38.262 904.755 37.902 C 904.935 37.722 905.025 37.452 904.845 37.272 C 904.665 37.092 904.215 37.092 904.035 37.002 C 903.765 36.912 903.405 36.822 903.315 36.462 C 903.405 35.832 903.405 35.472 903.675 35.292 Z" style="fill-opacity: 0.5;"/>
  <path fill="#fff" fill-rule="evenodd" d="M 912.495 35.022 C 912.945 34.842 913.486 34.932 913.936 35.292 C 914.386 35.652 914.565 36.552 914.295 37.092 C 914.206 37.542 913.756 37.902 913.215 37.992 C 912.856 37.992 912.406 37.992 912.045 37.812 C 911.325 37.362 911.145 36.192 911.686 35.562 C 911.85 35.232 912.168 35.128 912.428 35.043 L 912.495 35.022 Z M 912.406 37.362 C 912.675 37.632 913.306 37.632 913.665 37.362 C 914.025 37.002 914.115 36.192 913.845 35.562 C 913.665 35.292 913.125 35.112 912.765 35.292 C 912.495 35.382 912.315 35.652 912.136 35.921 C 911.865 36.281 911.956 37.003 912.406 37.361 L 912.406 37.362 Z" clip-rule="evenodd" style="fill-opacity: 0.5;"/>
  <path fill="#fff" d="M 915.825 35.472 C 916.005 35.202 916.365 34.932 916.725 34.932 C 917.085 34.932 917.445 34.932 917.715 35.202 C 917.895 35.382 917.985 35.832 917.985 36.102 L 917.985 37.902 L 917.535 37.902 L 917.535 36.282 C 917.535 36.012 917.445 35.652 917.355 35.472 C 916.995 35.202 916.455 35.292 916.275 35.652 C 916.095 35.832 916.005 36.282 916.005 36.552 L 916.005 37.992 L 915.555 37.992 C 915.555 37.002 915.645 36.102 915.555 35.112 L 916.005 35.112 C 915.825 35.202 915.825 35.292 915.825 35.472 Z" style="fill-opacity: 0.5;"/>
  <path fill="#fff" fill-rule="evenodd" d="M 921.045 35.022 C 921.495 34.842 922.035 34.932 922.485 35.292 C 922.935 35.652 923.114 36.462 922.755 37.002 C 922.664 37.452 922.214 37.902 921.675 37.992 C 921.405 37.992 920.955 37.992 920.595 37.812 C 919.875 37.362 919.695 36.372 920.145 35.652 C 920.414 35.292 920.685 35.112 921.045 35.022 Z M 920.864 37.452 C 921.225 37.722 921.945 37.722 922.305 37.272 C 922.575 36.912 922.575 36.102 922.214 35.652 C 922.035 35.382 921.495 35.202 921.135 35.382 C 920.865 35.472 920.687 35.74 920.507 36.009 L 920.505 36.012 C 920.235 36.462 920.414 37.182 920.864 37.452 Z" clip-rule="evenodd" style="fill-opacity: 0.5;"/>
  <path fill="#fff" d="M 924.285 35.472 C 924.464 35.202 924.825 34.932 925.185 34.932 C 925.544 34.932 925.905 34.932 926.175 35.202 C 926.355 35.382 926.444 35.832 926.444 36.192 L 926.444 37.992 L 925.994 37.992 L 925.994 36.462 C 925.994 36.192 925.994 35.832 925.814 35.562 C 925.455 35.292 924.914 35.382 924.735 35.742 C 924.555 35.922 924.555 36.372 924.555 36.642 L 924.555 38.082 L 924.105 38.082 L 924.105 35.202 L 924.555 35.202 C 924.285 35.202 924.285 35.292 924.285 35.472 Z M 931.035 35.472 C 931.214 35.112 931.664 34.842 932.114 34.932 C 932.385 34.932 932.744 35.112 933.014 35.292 C 933.194 35.562 933.194 35.922 933.194 36.192 L 933.194 37.902 L 932.744 37.902 L 932.744 36.282 C 932.744 36.012 932.655 35.652 932.475 35.472 C 932.114 35.202 931.575 35.292 931.394 35.652 C 931.214 35.832 931.214 36.192 931.214 36.462 L 931.214 37.902 L 930.764 37.902 L 930.764 35.022 L 931.214 35.022 C 931.035 35.202 931.035 35.292 931.035 35.472 Z" style="fill-opacity: 0.5;"/>
  <path fill="#fff" fill-rule="evenodd" d="M 936.525 35.562 C 936.705 35.832 936.795 36.282 936.705 36.642 C 935.895 36.642 935.175 36.642 934.455 36.552 C 934.545 37.002 934.905 37.542 935.355 37.632 C 935.715 37.722 936.165 37.452 936.435 37.092 C 936.465 37.122 936.485 37.152 936.504 37.181 C 936.544 37.241 936.584 37.302 936.705 37.361 C 936.435 37.723 936.165 37.903 935.805 37.991 C 935.445 37.991 934.995 37.991 934.635 37.811 C 933.825 37.273 933.735 36.011 934.455 35.381 C 935.085 34.841 935.985 34.931 936.525 35.561 L 936.525 35.562 Z M 935.445 35.382 C 934.995 35.202 934.455 35.652 934.365 36.282 C 934.995 36.282 935.715 36.282 936.255 36.372 C 936.255 36.102 936.255 35.922 936.075 35.742 C 935.985 35.562 935.625 35.382 935.445 35.382 Z" clip-rule="evenodd" style="fill-opacity: 0.5;"/>
  <path fill="#fff" d="M 876.405 37.902 L 876.855 37.902 L 876.855 35.022 L 876.405 35.022 L 876.405 37.902 Z M 887.115 35.022 L 887.656 35.022 C 887.745 35.112 887.745 35.202 887.745 35.202 C 888.015 35.922 888.375 36.642 888.645 37.452 C 888.915 36.642 889.275 35.832 889.636 35.022 L 890.175 35.022 C 889.725 36.012 889.365 36.912 889.095 37.902 L 888.556 37.902 C 887.836 37.002 887.386 36.012 887.115 35.022 Z M 909.975 37.902 L 910.425 37.902 L 910.425 35.022 L 909.975 35.022 L 909.975 37.902 Z M 929.055 37.902 L 929.505 37.902 L 929.505 35.022 L 929.055 35.022 L 929.055 37.902 Z" style="fill-opacity: 0.5;"/>
  <path fill="#fff" d="M 449.05 20.79 C 449.05 25.83 451.3 30.42 454.99 33.57 C 454.99 33.57 455.08 33.66 455.17 33.66 C 452.56 35.55 449.41 36.63 445.9 36.63 C 437.17 36.63 430.06 29.52 430.06 20.88 C 430.06 12.24 437.17 5.04 445.9 5.04 C 449.32 5.04 452.56 6.21 455.17 8.01 C 455.08 8.01 455.08 8.1 454.99 8.1 C 451.39 11.16 449.05 15.66 449.05 20.79 Z M 481.72 20.79 C 481.72 29.52 474.61 36.63 465.88 36.63 C 462.46 36.63 459.22 35.46 456.61 33.66 C 456.61 33.66 456.7 33.57 456.79 33.57 C 460.39 30.51 462.73 25.92 462.73 20.79 C 462.73 15.75 460.48 11.16 456.79 8.01 C 456.79 8.01 456.7 7.92 456.61 7.92 C 459.22 6.03 462.37 4.95 465.88 4.95 C 474.7 4.95 481.72 12.06 481.72 20.79 Z" style="fill-opacity: 0.5;"/>
  <path fill="#fff" d="M 480.82 30.33 L 480.64 30.33 L 480.64 30.78 L 480.55 30.78 L 480.55 30.33 L 480.28 30.33 L 480.28 30.15 L 480.82 30.15 L 480.82 30.33 Z M 481.54 30.15 L 481.72 30.15 L 481.72 30.78 L 481.63 30.78 L 481.63 30.33 L 481.45 30.69 L 481.36 30.69 L 481.18 30.33 L 481.18 30.78 L 481 30.78 L 481 30.15 L 481.18 30.15 L 481.36 30.6 L 481.54 30.15 Z" style="fill-opacity: 0.5;"/>
  <path fill="#fff" fill-rule="evenodd" d="M 478.75 41.31 L 478.75 39.06 C 478.75 39.06 479.74 39.06 479.74 38.97 L 479.74 45 L 478.75 45 L 478.75 44.55 C 478.48 45 477.94 45.18 477.4 45.18 C 476.23 45.18 475.15 44.19 475.15 42.93 C 475.15 41.76 476.14 40.68 477.4 40.68 C 477.85 40.68 478.48 40.95 478.75 41.31 Z M 443.65 40.77 L 443.65 41.31 C 443.38 40.95 442.75 40.68 442.3 40.68 C 441.04 40.68 440.05 41.76 440.05 42.93 C 440.05 44.19 441.13 45.18 442.3 45.18 C 442.84 45.18 443.38 45 443.65 44.55 L 443.65 45 L 444.64 45 L 444.64 40.68 L 443.65 40.68 L 443.65 40.77 Z M 442.3 44.46 C 441.58 44.46 440.95 43.92 440.95 43.2 L 440.95 43.02 C 440.95 42.3 441.58 41.76 442.3 41.76 C 443.02 41.76 443.56 42.39 443.56 43.11 C 443.65 43.83 443.11 44.37 442.3 44.46 Z M 481.36 45.18 L 481.27 45.18 L 481.18 45 L 481.18 45.18 L 481.09 45.18 L 481.09 44.82 L 481.36 44.82 L 481.36 45 L 481.27 45 L 481.36 45.18 Z M 481.09 45.18 C 481.09 45.27 481.18 45.27 481.18 45.27 L 481.27 45.27 C 481.27 45.27 481.36 45.27 481.45 45.18 C 481.54 45.09 481.54 44.91 481.45 44.73 C 481.45 44.64 481.36 44.64 481.36 44.64 C 481.45 44.64 481.54 44.73 481.54 44.73 L 481.63 44.82 L 481.63 45.09 C 481.63 45.18 481.54 45.27 481.54 45.27 C 481.495 45.27 481.472 45.292 481.45 45.315 C 481.427 45.337 481.405 45.36 481.36 45.36 L 481.18 45.36 C 481 45.36 480.91 45.27 480.82 45.09 L 480.82 44.82 L 480.91 44.73 C 480.91 44.685 480.91 44.662 480.921 44.651 C 480.932 44.64 480.955 44.64 481 44.64 L 481.18 44.64 L 481.09 44.73 C 481 44.91 481 45.09 481.09 45.18 Z M 477.49 44.46 C 476.77 44.46 476.14 43.92 476.14 43.2 L 476.14 43.02 C 476.14 42.3 476.77 41.76 477.58 41.76 C 478.3 41.76 478.84 42.39 478.84 43.11 C 478.76 43.82 478.2 44.38 477.49 44.46 Z M 454.99 42.57 C 454.99 42.03 455.53 41.49 456.16 41.49 C 456.7 41.49 457.24 41.94 457.33 42.57 L 454.99 42.57 Z M 456.16 40.77 C 457.33 40.77 458.23 41.67 458.23 43.02 L 458.23 43.38 L 454.99 43.38 C 455.08 44.1 455.71 44.46 456.34 44.46 C 456.88 44.46 457.24 44.28 457.6 44.01 L 458.05 44.64 C 457.6 45 456.88 45.18 456.34 45.18 L 456.25 45.18 C 455.08 45.27 454 44.28 454 43.02 C 454 41.85 454.9 40.77 456.16 40.77 Z M 468.76 44.37 C 468.04 44.37 467.41 43.83 467.41 43.11 L 467.41 43.02 C 467.41 42.3 468.04 41.76 468.76 41.76 C 469.48 41.76 470.02 42.39 470.02 43.2 C 470.02 43.83 469.48 44.37 468.76 44.37 Z M 470.02 41.31 L 470.02 40.68 L 471.01 40.68 L 471.01 45 L 470.02 45 L 470.02 44.55 C 469.75 45 469.12 45.18 468.67 45.18 C 467.5 45.18 466.42 44.19 466.42 42.93 C 466.42 41.76 467.41 40.68 468.67 40.68 C 469.12 40.68 469.75 40.95 470.02 41.31 Z M 464.53 44.37 C 463.81 44.28 463.18 43.65 463.27 42.84 C 463.36 42.21 463.81 41.58 464.53 41.58 C 464.828 41.58 465.126 41.703 465.476 41.848 L 465.478 41.848 L 465.7 41.94 L 466.15 41.22 C 465.7 40.86 465.16 40.68 464.62 40.77 C 463.36 40.68 462.46 41.67 462.37 42.84 L 462.37 43.02 C 462.37 44.28 463.27 45.18 464.44 45.27 L 464.62 45.27 C 465.16 45.27 465.79 45.09 466.15 44.82 L 465.7 44.1 C 465.522 44.135 465.359 44.185 465.204 44.232 C 464.966 44.304 464.748 44.37 464.53 44.37 Z M 473.08 41.31 C 473.35 40.95 473.8 40.68 474.25 40.68 C 474.52 40.68 474.7 40.77 474.88 40.86 L 474.61 41.76 C 474.43 41.67 474.25 41.67 474.07 41.67 C 473.35 41.67 473.08 42.12 473.08 42.84 L 473.08 45.18 L 472.09 45.18 L 472.09 40.86 L 473.08 40.86 L 473.08 41.31 Z M 447.79 42.57 L 447.34 42.48 C 447.278 42.464 447.216 42.452 447.156 42.44 C 446.867 42.38 446.62 42.328 446.62 42.03 C 446.62 41.76 446.89 41.58 447.52 41.58 C 447.97 41.58 448.51 41.67 448.87 41.94 L 449.23 41.22 C 448.69 40.95 448.06 40.77 447.52 40.77 C 446.35 40.77 445.72 41.22 445.72 42.21 C 445.72 42.84 446.17 43.38 447.25 43.47 L 447.7 43.56 C 448.15 43.65 448.42 43.74 448.42 44.01 C 448.42 44.28 448.06 44.46 447.43 44.46 C 446.98 44.46 446.35 44.28 445.99 44.01 L 445.54 44.73 C 446.08 45.09 446.8 45.27 447.43 45.27 C 448.69 45.27 449.41 44.73 449.41 43.83 C 449.23 43.02 448.69 42.75 447.79 42.57 Z M 460.12 41.31 C 460.39 40.95 460.84 40.68 461.29 40.68 C 461.47 40.68 461.74 40.77 461.83 40.86 L 461.56 41.76 C 461.38 41.67 461.2 41.67 461.02 41.67 C 460.39 41.67 460.12 42.12 460.12 42.84 L 460.12 45.18 L 459.13 45.18 L 459.13 40.86 L 460.12 40.86 L 460.12 41.31 Z M 453.19 44.1 C 452.998 44.228 452.805 44.265 452.581 44.308 C 452.483 44.326 452.386 44.347 452.29 44.37 C 451.84 44.37 451.66 44.1 451.66 43.65 L 451.66 41.67 L 453.19 41.67 L 453.19 40.77 L 451.66 40.77 L 451.66 39.51 L 450.67 39.51 L 450.67 40.86 L 449.77 40.86 L 449.77 41.76 L 450.67 41.76 L 450.67 43.74 C 450.67 44.82 451.03 45.36 452.2 45.36 C 452.56 45.36 453.1 45.27 453.37 45 L 453.19 44.1 Z M 437.62 40.68 L 437.8 40.68 C 438.61 40.77 439.42 41.58 439.51 42.39 L 439.51 45.09 L 438.52 45.09 L 438.52 42.75 C 438.52 41.94 438.16 41.58 437.53 41.58 L 437.35 41.58 C 436.72 41.67 436.36 42.21 436.45 42.75 L 436.45 45.09 L 435.46 45.09 L 435.46 42.75 C 435.46 41.94 435.01 41.58 434.47 41.58 L 434.29 41.58 C 433.66 41.67 433.3 42.21 433.39 42.75 L 433.39 45.09 L 432.4 45.09 L 432.4 40.77 L 433.39 40.77 L 433.39 41.31 C 433.66 40.86 434.2 40.68 434.65 40.68 C 435.19 40.68 435.82 40.95 436.09 41.4 C 436.45 40.95 437.08 40.68 437.62 40.68 Z" clip-rule="evenodd" style="fill-opacity: 0.5;"/>
  <path fill="#fff" d="M 455.8 33.12 C 452.141 30.111 450.027 25.617 450.04 20.88 C 450.04 15.93 452.29 11.43 455.98 8.64 C 459.49 11.52 461.74 15.93 461.74 20.88 C 461.74 25.83 459.49 30.15 455.8 33.12 Z" style="fill-opacity: 0.5;"/>
  <path fill="#fff" fill-rule="evenodd" d="M 480.28 30.24 L 480.28 30.15 L 480.73 30.15 L 480.73 30.24 L 480.55 30.24 L 480.55 30.78 L 480.46 30.78 L 480.46 30.24 L 480.28 30.24 Z M 481.36 30.6 L 481.54 30.15 L 481.72 30.15 L 481.72 30.78 L 481.63 30.78 L 481.63 30.33 L 481.45 30.69 L 481.36 30.69 L 481.18 30.33 L 481.18 30.78 L 481.09 30.78 L 481.09 30.15 L 481.18 30.15 L 481.36 30.6 Z" clip-rule="evenodd" style="fill-opacity: 0.5;"/>
  <path fill="#fff" d="M 660.148 33.371 L 658.077 33.371 C 657.627 33.371 657.268 33.101 657.268 32.651 L 657.268 31.841 C 655.827 33.011 653.938 33.731 652.048 33.731 C 648.448 33.731 646.827 31.391 646.827 27.881 L 646.827 18.161 C 646.827 17.621 647.188 17.351 647.727 17.351 L 649.977 17.351 C 650.518 17.351 650.788 17.531 650.788 18.161 L 650.788 27.161 C 650.788 28.961 651.238 30.221 653.218 30.221 C 654.388 30.221 656.007 29.501 656.998 28.691 L 656.998 18.161 C 656.998 17.621 657.268 17.351 657.807 17.351 L 660.148 17.351 C 660.688 17.351 660.957 17.531 660.957 18.161 L 660.957 32.381 C 661.048 33.101 660.777 33.371 660.148 33.371 Z M 607.048 18.071 C 607.048 17.621 607.228 17.351 607.678 17.351 L 610.468 17.351 C 610.918 17.351 611.098 17.621 611.098 18.071 L 611.098 32.381 C 611.098 33.011 610.828 33.191 610.288 33.191 L 607.948 33.191 C 607.318 33.191 607.048 32.921 607.048 32.381 L 607.048 18.071 Z M 665.098 18.071 C 665.098 17.621 665.277 17.351 665.727 17.351 L 668.518 17.351 C 668.968 17.351 669.148 17.621 669.148 18.071 L 669.148 32.381 C 669.148 33.011 668.877 33.191 668.338 33.191 L 665.998 33.191 C 665.368 33.191 665.098 32.921 665.098 32.381 L 665.098 18.071 Z M 628.558 33.371 L 626.218 33.371 C 625.588 33.371 625.408 33.101 625.408 32.471 L 625.408 23.561 C 625.408 21.761 624.868 20.501 622.888 20.501 C 621.628 20.501 620.008 21.221 619.018 22.031 L 619.018 32.381 C 619.018 32.921 618.749 33.191 618.208 33.191 L 615.778 33.191 C 615.238 33.191 614.968 32.921 614.968 32.381 L 614.968 18.251 C 614.968 17.711 615.238 17.441 615.778 17.441 L 617.938 17.441 C 618.388 17.441 618.749 17.621 618.749 18.071 L 618.749 18.971 C 620.252 17.755 622.125 17.088 624.058 17.081 C 627.658 17.081 629.278 19.331 629.278 22.931 L 629.278 32.561 C 629.278 33.101 629.099 33.371 628.558 33.371 Z M 640.168 13.031 C 640.168 11.771 639.088 10.601 637.738 10.601 C 636.477 10.601 635.308 11.681 635.308 13.031 C 635.303 14.376 636.394 15.467 637.738 15.461 C 639.088 15.461 640.168 14.291 640.168 13.031 Z M 643.588 17.531 C 644.038 17.531 644.218 17.711 644.218 18.071 L 644.218 20.411 C 644.218 20.861 643.948 21.041 643.498 21.041 L 639.718 21.041 L 639.718 32.651 C 639.718 33.281 639.448 33.461 638.818 33.461 L 636.568 33.461 C 635.938 33.461 635.668 33.191 635.668 32.651 L 635.668 20.951 L 631.888 20.951 C 631.438 20.951 631.168 20.681 631.168 20.321 L 631.168 17.981 C 631.168 17.531 631.438 17.441 631.798 17.441 C 631.978 17.531 643.588 17.531 643.588 17.531 Z M 680.668 13.031 C 680.668 11.771 679.588 10.601 678.238 10.601 C 676.977 10.601 675.808 11.681 675.808 13.031 C 675.803 14.376 676.894 15.467 678.238 15.461 C 679.588 15.461 680.668 14.291 680.668 13.031 Z M 683.998 17.531 C 684.448 17.531 684.627 17.711 684.627 18.071 L 684.627 20.411 C 684.627 20.861 684.357 21.041 683.907 21.041 L 680.127 21.041 L 680.127 32.651 C 680.127 33.281 679.857 33.461 679.227 33.461 L 677.068 33.461 C 676.438 33.461 676.168 33.191 676.168 32.651 L 676.168 20.951 L 672.388 20.951 C 671.938 20.951 671.668 20.681 671.668 20.321 L 671.668 17.981 C 671.668 17.531 671.938 17.441 672.298 17.441 C 672.477 17.531 683.998 17.531 683.998 17.531 Z" style="fill-opacity: 0.5;"/>
  <path fill="#fff" fill-rule="evenodd" d="M 686.158 32.381 C 686.158 31.751 685.708 31.301 685.078 31.301 C 684.449 31.301 683.999 31.751 683.999 32.381 C 683.999 33.011 684.449 33.461 685.078 33.461 C 685.618 33.461 686.158 33.011 686.158 32.381 Z M 685.078 33.281 C 685.618 33.281 685.978 32.831 685.978 32.381 C 685.978 31.841 685.618 31.481 685.078 31.481 C 684.538 31.481 684.178 31.931 684.178 32.381 C 684.178 32.921 684.538 33.281 685.078 33.281 Z M 685.168 31.751 L 684.628 31.751 L 684.718 33.011 L 684.899 33.011 L 684.899 32.471 L 685.078 32.471 L 685.438 33.011 L 685.618 33.011 L 685.258 32.471 C 685.438 32.471 685.618 32.381 685.618 32.111 C 685.618 31.841 685.438 31.751 685.168 31.751 Z M 684.988 32.291 L 684.808 32.291 L 684.808 31.931 L 685.078 31.931 C 685.168 31.931 685.349 31.931 685.349 32.111 C 685.349 32.291 685.168 32.291 684.988 32.291 Z" clip-rule="evenodd" style="fill-opacity: 0.5;"/>
  <path fill="#fff" d="M 972.885 30.612 L 974.235 22.872 L 972.885 30.612 Z M 978.105 30.432 C 978.464 30.252 978.825 29.892 978.914 29.262 L 979.905 24.132 L 979.005 29.262 C 978.735 29.892 978.464 30.252 978.105 30.432 Z" style="fill-opacity: 0.5;"/>
  <path fill="#fff" d="M 986.025 33.762 C 986.025 34.842 985.755 35.652 985.125 36.372 C 984.315 37.272 983.235 37.632 981.795 37.632 C 978.915 37.632 974.955 36.012 971.355 32.952 C 967.305 29.622 964.965 25.392 964.965 22.422 C 964.965 21.432 965.235 20.622 965.865 19.902 C 966.675 18.912 967.845 18.552 969.285 18.552 C 970.635 18.552 972.435 19.002 974.055 19.722 L 972.166 30.432 L 971.985 31.242 L 977.296 31.242 C 978.375 31.242 979.185 30.522 979.455 29.442 L 980.355 24.042 C 983.955 27.192 986.025 30.972 986.025 33.762 Z" style="fill-opacity: 0.5;"/>
  <path fill="#fff" fill-rule="evenodd" d="M 970.275 13.512 C 970.455 12.792 970.995 12.342 971.714 12.342 L 977.519 12.275 L 987.195 12.162 L 986.565 15.582 C 986.385 16.302 985.846 16.752 985.125 16.752 L 980.985 16.752 L 979.815 23.862 L 978.915 28.992 C 978.825 29.622 978.465 29.982 978.105 30.162 C 977.835 30.342 977.655 30.342 977.385 30.342 L 972.885 30.342 L 974.235 22.602 L 975.314 16.932 L 969.645 16.932 L 970.275 13.512 Z M 1005.555 12.612 C 1004.925 12.612 1004.295 12.882 1004.114 13.872 L 1001.055 30.522 L 1004.925 30.522 C 1005.555 30.522 1006.185 30.252 1006.364 29.262 L 1009.425 12.612 L 1005.555 12.612 Z M 1034.264 21.252 L 1031.655 21.252 L 1030.935 25.212 C 1030.664 26.382 1030.755 26.832 1032.195 26.832 L 1033.185 26.832 L 1032.555 30.522 C 1027.245 30.972 1025.535 30.432 1025.535 28.272 C 1025.535 27.642 1025.625 26.922 1025.805 25.932 L 1026.705 21.162 L 1024.725 21.162 L 1025.445 17.472 L 1027.425 17.472 L 1027.964 14.772 C 1028.145 13.782 1028.775 13.512 1029.405 13.512 L 1033.095 13.512 L 1032.375 17.562 L 1034.985 17.562 L 1034.264 21.252 Z M 1023.105 21.252 C 1023.464 17.832 1020.045 17.112 1017.255 17.112 C 1014.464 17.112 1010.235 18.192 1010.235 22.062 C 1010.235 24.551 1012.728 25.077 1014.78 25.51 C 1016.215 25.812 1017.435 26.07 1017.435 26.922 C 1017.435 27.732 1016.535 28.002 1015.725 28.002 C 1014.105 28.002 1014.014 26.922 1014.105 26.472 L 1009.155 26.472 C 1008.795 29.982 1012.034 30.882 1015.184 30.882 C 1019.864 30.882 1022.925 29.082 1022.925 25.662 C 1022.925 23.192 1020.297 22.58 1018.177 22.086 C 1016.745 21.753 1015.545 21.474 1015.545 20.712 C 1015.545 20.172 1016.175 19.812 1016.895 19.812 C 1018.334 19.812 1018.514 20.622 1018.425 21.072 L 1023.105 21.252 Z M 1046.505 17.202 C 1044.614 17.202 1043.175 18.192 1042.095 20.262 L 1042.005 20.262 L 1042.455 17.562 L 1037.775 17.562 L 1035.435 30.612 L 1039.305 30.612 C 1039.935 30.612 1040.475 30.342 1040.745 29.352 L 1041.375 26.202 C 1042.005 23.322 1043.085 22.422 1045.064 22.422 C 1045.514 22.422 1046.055 22.512 1046.235 22.602 L 1047.225 17.382 C 1047.045 17.202 1046.864 17.202 1046.505 17.202 Z M 993.585 20.262 C 994.755 20.262 995.655 21.342 995.475 22.512 L 990.705 22.512 C 990.885 21.162 991.964 20.262 993.585 20.262 Z M 1000.205 24.822 L 1000.155 25.212 L 990.255 25.032 C 989.985 26.562 991.064 27.642 992.414 27.642 C 993.225 27.642 994.035 27.372 994.485 26.562 L 999.525 26.562 C 998.085 29.802 994.755 30.882 991.605 30.882 C 987.914 30.882 985.125 29.082 985.125 25.392 C 985.125 20.172 989.625 17.112 993.855 17.112 C 997.995 17.112 1000.335 19.632 1000.335 23.322 C 1000.335 23.833 1000.276 24.285 1000.205 24.822 Z M 1054.064 27.282 C 1052.895 27.282 1052.535 26.382 1052.535 25.302 C 1052.535 22.962 1053.614 21.162 1055.414 21.162 C 1056.585 21.162 1057.214 22.062 1057.214 23.142 C 1057.125 25.482 1055.955 27.282 1054.064 27.282 Z M 1057.845 18.912 C 1058.025 17.832 1058.655 17.472 1059.375 17.472 L 1063.245 17.472 L 1060.905 30.522 L 1056.225 30.522 L 1056.585 28.812 L 1056.495 28.812 C 1055.235 30.342 1053.614 30.972 1052.085 30.972 C 1048.845 30.972 1047.225 28.812 1047.225 25.752 C 1047.225 21.162 1050.285 17.112 1054.245 17.112 C 1055.864 17.112 1057.035 17.652 1057.755 18.912 L 1057.845 18.912 Z" clip-rule="evenodd" style="fill-opacity: 0.5;"/>
  <path fill="#fff" d="M 762.035 30.432 L 758.614 23.142 C 757.714 21.432 756.994 19.452 756.635 18.552 L 756.544 18.642 C 756.725 19.902 756.725 21.612 756.725 22.962 L 756.814 30.522 L 754.294 30.522 L 754.294 14.862 L 757.264 14.862 L 761.044 22.422 C 761.764 23.862 762.394 25.752 762.664 26.472 L 762.755 26.382 C 762.664 25.572 762.575 23.322 762.575 21.972 L 762.485 14.862 L 764.914 14.862 L 764.914 30.432 L 762.035 30.432 Z" style="fill-opacity: 0.5;"/>
  <path fill="#fff" fill-rule="evenodd" d="M 769.415 25.572 L 769.415 25.392 L 775.985 25.392 L 775.985 24.852 C 775.985 22.242 775.445 20.802 774.455 19.902 C 773.555 19.002 772.565 18.732 771.395 18.732 C 769.955 18.732 768.875 19.182 767.975 20.262 C 766.985 21.432 766.535 22.782 766.535 24.762 C 766.535 28.362 768.515 30.702 771.755 30.702 C 773.285 30.702 774.635 30.162 775.895 29.172 L 774.995 27.642 C 774.185 28.452 773.285 28.812 772.205 28.812 C 769.955 28.812 769.415 27.192 769.415 25.572 Z M 769.415 23.592 C 769.415 21.702 770.225 20.622 771.575 20.622 C 772.745 20.622 773.645 21.792 773.555 23.592 L 769.415 23.592 Z" clip-rule="evenodd" style="fill-opacity: 0.5;"/>
  <path fill="#fff" d="M 789.305 30.522 L 786.964 30.522 L 785.614 25.302 C 785.255 23.952 784.895 22.242 784.895 22.242 L 784.805 22.242 C 784.805 22.242 784.625 23.412 784.085 25.482 L 782.735 30.612 L 780.395 30.612 L 777.335 19.362 L 779.764 19.002 L 781.025 24.492 C 781.295 25.932 781.564 27.462 781.564 27.462 L 781.655 27.462 C 781.655 27.462 781.835 25.932 782.285 24.402 L 783.725 19.182 L 786.155 19.182 L 787.414 24.312 C 787.955 26.202 788.135 27.552 788.135 27.552 L 788.225 27.552 C 788.225 27.552 788.495 25.842 788.764 24.492 L 789.935 19.182 L 792.545 19.182 L 789.305 30.522 Z" style="fill-opacity: 0.5;"/>
  <path fill="#fff" fill-rule="evenodd" d="M 805.595 28.092 L 806.945 30.432 L 810.005 30.432 L 807.665 26.652 C 806.945 25.392 805.865 23.862 805.325 23.592 C 807.755 23.592 809.195 21.612 809.195 19.362 C 809.195 16.842 807.575 14.862 804.155 14.862 L 799.386 14.862 L 799.386 30.432 L 801.905 30.432 L 801.905 23.772 C 802.355 23.862 802.625 24.042 802.895 24.312 C 803.795 25.122 804.515 26.112 805.595 28.092 Z M 801.905 16.932 L 803.345 16.932 C 805.595 16.932 806.495 17.742 806.405 19.272 C 806.405 20.082 806.136 20.712 805.686 21.162 C 805.236 21.612 804.515 21.792 803.165 21.792 L 801.905 21.792 L 801.905 16.932 Z M 813.425 25.572 L 813.425 25.392 L 819.994 25.392 L 819.994 24.852 C 819.994 22.242 819.455 20.802 818.464 19.902 C 817.564 19.002 816.575 18.732 815.405 18.732 C 813.964 18.732 812.885 19.182 811.985 20.262 C 810.994 21.432 810.544 22.782 810.544 24.762 C 810.544 28.362 812.525 30.702 815.764 30.702 C 817.294 30.702 818.644 30.162 819.905 29.172 L 819.005 27.642 C 818.194 28.452 817.294 28.812 816.214 28.812 C 813.964 28.812 813.425 27.192 813.425 25.572 Z M 813.425 23.592 C 813.425 21.702 814.235 20.622 815.585 20.622 C 816.844 20.622 817.655 21.792 817.564 23.592 L 813.425 23.592 Z" clip-rule="evenodd" style="fill-opacity: 0.5;"/>
  <path fill="#fff" d="M 824.855 30.612 C 822.335 30.612 822.335 28.362 822.335 27.372 L 822.335 17.742 C 822.335 16.122 822.245 15.402 822.155 14.412 L 824.675 13.872 C 824.855 14.592 824.855 15.492 824.855 16.932 L 824.855 26.562 C 824.855 28.092 824.945 28.362 825.035 28.542 C 825.214 28.722 825.575 28.812 825.845 28.722 L 826.295 30.252 C 825.845 30.612 825.395 30.612 824.855 30.612 Z" style="fill-opacity: 0.5;"/>
  <path fill="#fff" fill-rule="evenodd" d="M 827.465 15.762 C 827.465 16.662 828.185 17.382 829.085 17.382 C 830.075 17.382 830.795 16.572 830.705 15.762 C 830.705 14.862 829.985 14.142 829.085 14.142 C 828.185 14.142 827.465 14.862 827.465 15.762 Z M 827.915 19.272 L 827.915 30.432 L 830.435 30.522 L 830.435 18.822 L 827.915 19.272 Z" clip-rule="evenodd" style="fill-opacity: 0.5;"/>
  <path fill="#fff" d="M 837.455 30.702 C 834.395 30.702 832.595 28.542 832.595 24.852 C 832.595 20.712 835.025 18.732 837.635 18.732 C 838.895 18.732 839.795 19.002 840.785 19.992 L 839.525 21.612 C 838.895 21.072 838.264 20.712 837.545 20.712 C 836.735 20.712 836.105 21.162 835.745 21.882 C 835.385 22.602 835.205 23.592 835.205 25.032 C 835.205 26.652 835.385 27.552 836.014 28.092 C 836.375 28.542 836.914 28.722 837.545 28.722 C 838.355 28.722 839.164 28.362 839.885 27.552 L 841.055 29.082 C 840.064 30.252 838.985 30.702 837.455 30.702 Z" style="fill-opacity: 0.5;"/>
  <path fill="#fff" fill-rule="evenodd" d="M 841.595 28.992 C 841.595 29.892 842.315 30.612 843.215 30.612 C 844.115 30.612 844.925 29.892 844.836 28.992 C 844.836 28.092 844.115 27.372 843.215 27.372 C 842.315 27.372 841.595 28.092 841.595 28.992 Z M 843.215 27.732 C 842.495 27.732 841.955 28.272 841.955 29.082 C 841.955 29.802 842.495 30.432 843.215 30.432 C 843.936 30.432 844.475 29.892 844.475 29.082 C 844.565 28.272 843.936 27.732 843.215 27.732 Z M 843.47 29.702 C 843.499 29.739 843.52 29.782 843.575 29.892 L 844.025 29.982 C 844.025 29.982 843.665 29.442 843.575 29.262 L 843.486 29.172 C 843.755 29.172 843.936 28.902 843.936 28.632 C 843.936 28.272 843.755 28.092 843.395 28.092 L 842.675 28.092 L 842.675 29.982 L 843.036 29.982 L 843.036 29.172 L 843.125 29.172 C 843.187 29.172 843.206 29.215 843.272 29.361 C 843.301 29.426 843.339 29.511 843.395 29.622 C 843.43 29.657 843.452 29.678 843.47 29.702 Z M 843.215 28.452 L 843.395 28.452 C 843.486 28.452 843.486 28.452 843.575 28.722 C 843.575 28.722 843.575 28.812 843.486 28.902 C 843.447 28.941 843.425 28.962 843.398 28.975 C 843.362 28.992 843.318 28.992 843.215 28.992 L 843.036 28.992 L 843.036 28.452 L 843.215 28.452 Z M 717.306 27.012 C 718.386 32.142 723.786 35.652 730.175 35.652 C 731.525 35.652 732.785 35.472 734.045 35.202 C 737.735 34.302 741.065 32.412 743.315 29.712 C 745.565 27.012 746.375 23.862 745.745 20.802 C 744.665 15.672 739.265 12.162 732.875 12.162 C 731.705 12.162 730.355 12.342 729.095 12.612 C 721.175 14.322 715.955 20.712 717.305 27.012 L 717.306 27.012 Z M 729.275 13.332 C 730.535 13.062 731.705 12.882 732.965 12.882 C 739.085 12.882 744.125 16.212 745.115 20.982 C 745.655 23.772 744.845 26.742 742.775 29.352 C 740.615 31.872 737.465 33.762 733.865 34.572 C 732.605 34.842 731.435 35.022 730.175 35.022 C 724.055 35.022 719.015 31.692 718.025 26.922 C 716.765 21.072 721.895 14.952 729.275 13.332 Z" clip-rule="evenodd" style="fill-opacity: 0.5;"/>
  <path fill="#fff" fill-rule="evenodd" d="M 724.505 24.042 C 724.505 28.632 728.285 32.412 732.875 32.412 C 737.465 32.412 741.245 28.632 741.245 24.042 C 741.245 19.452 737.465 15.672 732.875 15.672 C 728.285 15.672 724.505 19.452 724.505 24.042 Z M 725.135 24.132 C 725.135 19.812 728.645 16.392 732.875 16.392 C 737.015 16.392 740.525 19.812 740.615 24.132 C 740.615 28.452 737.105 31.872 732.875 31.872 C 728.555 31.872 725.135 28.452 725.135 24.132 Z" clip-rule="evenodd" style="fill-opacity: 0.5;"/>
  <path fill="#fff" fill-rule="evenodd" d="M 726.305 23.952 C 726.305 26.832 728.645 29.172 731.525 29.172 C 734.405 29.172 736.745 26.832 736.745 23.952 C 736.745 21.072 734.405 18.732 731.525 18.732 C 728.645 18.732 726.305 21.072 726.305 23.952 Z M 727.025 23.862 C 727.025 21.342 729.005 19.362 731.525 19.362 C 734.045 19.362 736.025 21.342 736.025 23.862 C 736.025 26.382 734.045 28.362 731.525 28.362 C 729.005 28.362 727.025 26.382 727.025 23.862 Z" clip-rule="evenodd" style="fill-opacity: 0.5;"/>
  <path fill="#fff" d="M 353.02 25.11 C 353.47 25.11 353.83 25.02 354.19 24.75 L 358.51 22.23 C 359.41 21.69 360.4 21.51 361.39 21.6 C 366.7 22.23 370.39 23.22 371.47 23.49 C 371.74 23.58 371.92 23.49 372.1 23.31 C 372.28 23.13 372.55 22.77 372.64 22.23 C 372.82 21.69 372.82 21.33 372.82 21.06 C 372.82 20.79 372.64 20.61 372.37 20.52 C 370.66 19.98 363.1 18 352.93 18 C 342.76 18 335.2 20.07 333.49 20.52 C 333.22 20.61 333.04 20.79 333.04 21.06 C 333.04 21.33 333.04 21.78 333.22 22.23 C 333.4 22.77 333.58 23.13 333.76 23.31 C 333.94 23.49 334.12 23.58 334.39 23.49 C 335.47 23.13 339.16 22.14 344.47 21.6 C 345.46 21.51 346.54 21.69 347.35 22.23 L 351.67 24.75 C 352.21 25.02 352.57 25.11 353.02 25.11 Z M 345.73 10.98 C 346 11.43 346.36 11.7 346.81 11.79 C 347.26 11.88 347.71 11.88 348.16 11.61 C 348.61 11.34 348.88 10.98 348.97 10.53 C 349.06 10.08 349.06 9.63 348.79 9.18 L 344.92 2.43 C 344.83 2.25 344.56 2.16 344.29 2.16 C 344.02 2.16 343.57 2.34 343.03 2.61 C 342.49 2.88 342.13 3.24 341.95 3.42 C 341.77 3.6 341.77 3.87 341.86 4.14 L 345.73 10.98 Z M 342.13 15.84 C 342.58 16.11 343.03 16.11 343.48 16.02 C 343.93 15.93 344.29 15.66 344.56 15.21 C 344.83 14.76 344.83 14.31 344.74 13.86 C 344.65 13.41 344.38 13.05 343.93 12.78 L 337.09 8.91 C 336.91 8.82 336.64 8.82 336.37 9 C 336.1 9.18 335.83 9.54 335.56 10.08 C 335.29 10.62 335.11 11.07 335.11 11.34 C 335.11 11.61 335.2 11.88 335.38 11.97 L 342.13 15.84 Z M 354.73 8.55 C 354.73 9 354.55 9.45 354.19 9.81 C 353.92 10.08 353.47 10.35 352.93 10.35 C 352.48 10.35 352.03 10.17 351.67 9.81 C 351.4 9.54 351.13 9.09 351.13 8.55 L 351.13 0.72 C 351.13 0.45 351.31 0.27 351.49 0.18 C 351.76 0.09 352.21 0 352.84 0 C 353.47 0 353.92 0.09 354.19 0.18 C 354.46 0.27 354.55 0.45 354.55 0.72 L 354.55 8.55 L 354.73 8.55 Z M 360.31 10.98 C 360.04 11.43 359.68 11.7 359.23 11.79 C 358.78 11.88 358.33 11.88 357.88 11.61 C 357.43 11.34 357.16 10.98 357.07 10.53 C 356.98 10.08 356.98 9.63 357.25 9.18 L 361.12 2.43 C 361.21 2.25 361.48 2.16 361.75 2.16 C 362.02 2.16 362.47 2.34 363.01 2.61 C 363.55 2.88 363.91 3.24 364.09 3.42 C 364.27 3.6 364.27 3.87 364.18 4.14 L 360.31 10.98 Z M 363.82 15.84 C 363.37 16.11 362.92 16.11 362.47 16.02 C 362.02 15.93 361.66 15.66 361.39 15.21 C 361.12 14.76 361.12 14.31 361.21 13.86 C 361.3 13.41 361.57 13.05 362.02 12.78 L 368.77 8.91 C 368.95 8.82 369.22 8.82 369.49 9 C 369.76 9.18 370.03 9.54 370.3 10.08 C 370.57 10.62 370.75 11.07 370.75 11.34 C 370.75 11.61 370.66 11.88 370.48 11.97 L 363.82 15.84 Z M 326.47 31.05 L 328.63 31.05 C 328.72 31.05 328.81 31.14 328.81 31.14 L 330.97 36.72 L 333.04 31.14 C 333.04 31.05 333.13 31.05 333.22 31.05 L 335.38 31.05 C 335.56 31.05 335.65 31.23 335.56 31.32 L 330.25 43.47 C 330.25 43.56 330.16 43.56 330.07 43.56 L 328.18 43.56 C 328 43.56 327.91 43.38 328 43.29 L 329.8 39.06 L 326.29 31.32 C 326.2 31.14 326.29 31.05 326.47 31.05 Z" style="fill-opacity: 0.5;"/>
  <path fill="#fff" fill-rule="evenodd" d="M 358.6 31.14 L 358.6 32.22 C 357.97 31.5 357.07 30.87 355.72 30.78 C 353.65 30.78 351.49 32.13 351.49 35.28 C 351.49 37.71 353.02 39.87 355.81 39.87 C 357.25 39.87 358.15 39.06 358.6 38.43 L 358.6 39.51 C 358.6 39.6 358.69 39.69 358.78 39.69 L 360.67 39.69 C 360.76 39.69 360.85 39.6 360.85 39.51 L 360.85 31.14 C 360.85 31.05 360.76 30.96 360.67 30.96 L 358.78 30.96 C 358.69 30.96 358.6 31.05 358.6 31.14 Z M 356.17 37.98 C 354.73 37.98 353.83 36.9 353.83 35.37 C 353.83 33.93 354.64 32.76 356.08 32.76 C 357.7 32.76 358.6 33.93 358.6 35.46 C 358.6 36.99 357.61 37.98 356.17 37.98 Z" clip-rule="evenodd" style="fill-opacity: 0.5;"/>
  <path fill="#fff" d="M 362.65 39.51 L 362.65 31.23 C 362.65 31.14 362.74 31.05 362.83 31.05 L 364.72 31.05 C 364.81 31.05 364.9 31.14 364.9 31.23 L 364.9 32.31 C 365.35 31.5 366.16 30.78 367.6 30.78 C 369.13 30.78 370.75 31.5 370.75 34.83 L 370.75 39.51 C 370.75 39.6 370.66 39.69 370.57 39.69 L 368.68 39.69 C 368.59 39.69 368.5 39.6 368.5 39.51 L 368.5 35.01 C 368.5 34.2 368.32 32.85 366.88 32.85 C 365.44 32.85 364.99 34.11 364.99 35.28 L 364.99 39.6 C 364.99 39.69 364.9 39.78 364.81 39.78 L 362.92 39.78 C 362.74 39.69 362.65 39.6 362.65 39.51 Z M 372.46 39.51 L 372.46 31.23 C 372.46 31.14 372.55 31.05 372.64 31.05 L 374.53 31.05 C 374.62 31.05 374.71 31.14 374.71 31.23 L 374.71 32.31 C 375.16 31.5 375.97 30.78 377.41 30.78 C 378.94 30.78 380.56 31.5 380.56 34.83 L 380.56 39.51 C 380.56 39.6 380.47 39.69 380.38 39.69 L 378.49 39.69 C 378.4 39.69 378.31 39.6 378.31 39.51 L 378.31 35.01 C 378.31 34.2 378.13 32.85 376.69 32.85 C 375.25 32.85 374.8 34.11 374.8 35.28 L 374.8 39.6 C 374.8 39.69 374.71 39.78 374.62 39.78 L 372.73 39.78 C 372.55 39.69 372.46 39.6 372.46 39.51 Z M 392.71 31.05 L 394.6 31.05 C 394.69 31.05 394.78 31.14 394.78 31.23 L 394.78 32.94 C 395.14 31.23 396.58 30.69 397.66 30.87 C 397.75 30.87 397.84 30.96 397.84 31.05 L 397.84 32.94 C 397.84 33.03 397.75 33.12 397.57 33.12 C 395.59 32.76 394.78 33.75 394.78 35.28 L 394.78 39.42 C 394.78 39.51 394.69 39.6 394.6 39.6 L 392.71 39.6 C 392.62 39.6 392.53 39.51 392.53 39.42 L 392.53 31.14 C 392.44 31.14 392.53 31.05 392.71 31.05 Z M 313.69 32.94 C 313.06 32.76 312.79 32.67 312.34 32.49 C 311.89 32.31 310.99 31.86 310.99 31.05 C 310.99 30.24 311.53 29.79 312.61 29.79 C 313.6 29.79 314.14 30.24 314.5 31.05 C 314.59 31.14 314.68 31.23 314.77 31.14 L 316.39 30.24 C 316.48 30.15 316.48 30.06 316.48 29.97 C 316.03 28.89 314.86 27.63 312.7 27.63 C 310.27 27.63 308.74 29.07 308.74 31.05 C 308.74 32.94 310 33.93 311.71 34.56 C 312.34 34.74 312.61 34.83 313.15 35.01 C 314.14 35.37 314.59 35.82 314.59 36.45 C 314.59 37.08 314.23 37.8 312.61 37.8 C 311.17 37.8 310.63 37.08 310.36 36.36 C 310.36 36.27 310.18 36.18 310.09 36.27 L 308.47 37.26 C 308.38 37.35 308.38 37.44 308.38 37.53 C 309.01 39.06 310.72 40.05 312.7 40.05 C 314.95 40.05 316.93 38.88 316.93 36.54 C 316.84 34.02 314.32 33.12 313.69 32.94 Z M 326.38 37.44 C 326.29 37.35 326.2 37.35 326.11 37.35 C 325.39 37.89 324.49 37.89 323.86 36.9 C 323.32 36 322.6 35.01 322.6 35.01 L 325.48 31.41 C 325.57 31.32 325.48 31.14 325.3 31.14 L 323.05 31.14 C 322.96 31.14 322.96 31.14 322.87 31.23 L 320.35 34.65 L 320.35 27.72 C 320.35 27.63 320.26 27.54 320.17 27.54 L 318.28 27.54 C 318.19 27.54 318.1 27.63 318.1 27.72 L 318.1 39.51 C 318.1 39.6 318.19 39.69 318.28 39.69 L 320.17 39.69 C 320.26 39.69 320.35 39.6 320.35 39.51 L 320.35 35.64 C 320.35 35.64 321.61 37.71 322.15 38.43 C 322.78 39.51 323.77 39.87 324.76 39.87 C 325.75 39.87 326.29 39.6 327.1 38.88 C 327.19 38.79 327.19 38.7 327.1 38.61 L 326.38 37.44 Z M 340.15 34.65 C 339.52 34.38 339.34 34.38 338.89 34.2 C 338.44 34.02 337.99 33.75 337.99 33.39 C 337.99 33.03 338.35 32.58 339.07 32.58 C 339.7 32.58 340.06 32.85 340.24 33.21 C 340.33 33.3 340.42 33.39 340.51 33.3 L 341.86 32.49 C 341.95 32.4 341.95 32.31 341.95 32.22 C 341.59 31.59 340.87 30.78 339.07 30.78 C 336.91 30.78 335.83 32.04 335.83 33.39 C 335.83 34.74 337 35.46 337.99 35.82 C 339.16 36.27 339.25 36.36 339.34 36.36 C 339.7 36.54 340.15 36.72 340.15 37.17 C 340.15 37.62 339.7 37.98 338.98 37.98 C 338.26 37.98 337.54 37.71 337.18 36.9 C 337.18 36.81 337 36.72 336.91 36.81 L 335.56 37.62 C 335.47 37.71 335.47 37.8 335.47 37.89 C 335.83 38.88 337.09 39.87 338.98 39.87 C 341.05 39.87 342.4 38.79 342.4 37.17 C 342.4 35.55 341.32 35.1 340.15 34.65 Z M 347.98 32.94 C 348.88 32.94 349.51 33.21 350.05 33.66 C 350.14 33.75 350.23 33.66 350.32 33.57 L 351.13 32.22 C 351.22 32.13 351.13 32.04 351.04 31.95 C 350.23 31.41 349.24 30.87 347.8 30.87 C 346.45 30.87 345.19 31.23 344.29 32.13 C 343.39 33.03 342.94 34.11 342.94 35.37 C 342.94 36.9 343.57 37.89 344.29 38.61 C 345.01 39.33 346.27 39.87 347.8 39.87 C 349.24 39.87 350.32 39.24 351.04 38.79 C 351.13 38.7 351.13 38.61 351.13 38.52 L 350.32 37.17 C 350.23 37.08 350.14 37.08 350.05 37.08 C 349.51 37.44 348.79 37.8 347.98 37.8 C 347.08 37.8 345.37 37.26 345.37 35.37 C 345.28 33.48 346.99 32.94 347.98 32.94 Z" style="fill-opacity: 0.5;"/>
  <path fill="#fff" fill-rule="evenodd" d="M 384.88 37.35 C 385.42 37.8 386.14 37.98 386.95 37.98 C 387.58 37.98 388.48 37.71 389.02 37.08 L 389.2 37.08 L 390.55 37.89 C 390.73 37.89 390.73 38.07 390.64 38.16 C 389.65 39.33 388.3 39.87 386.68 39.87 C 384.97 39.87 383.8 39.33 383.08 38.61 C 382.36 37.89 381.73 36.99 381.73 35.46 C 381.73 33.93 382.27 33.03 383.08 32.22 C 383.89 31.41 385.06 30.87 386.5 30.87 C 387.94 30.87 389.11 31.5 389.74 32.13 C 390.37 32.85 391.09 33.75 391.09 35.82 C 391.09 35.91 391 36 390.91 36 L 384.07 36 C 384.07 36.45 384.34 36.9 384.88 37.35 Z M 388.84 34.56 C 388.66 33.3 387.67 32.67 386.59 32.67 C 385.51 32.67 384.52 33.3 384.25 34.56 L 388.84 34.56 Z" clip-rule="evenodd" style="fill-opacity: 0.5;"/>
  <path fill="#fff" d="M 540.49 9.72 C 542.251 7.876 544.691 6.836 547.24 6.84 C 550.75 6.84 553.81 8.82 555.52 11.7 C 556.96 11.07 558.49 10.71 560.2 10.71 C 566.59 10.71 571.72 15.93 571.72 22.32 C 571.72 28.71 566.59 33.93 560.2 33.93 C 559.39 33.93 558.67 33.84 557.95 33.66 C 556.51 36.27 553.72 37.98 550.57 37.98 C 549.22 37.98 547.96 37.71 546.88 37.17 C 545.44 40.59 542.02 43.02 538.06 43.02 C 533.92 43.02 530.41 40.41 529.06 36.72 C 528.43 36.81 527.89 36.9 527.26 36.9 C 522.31 36.9 518.35 32.85 518.35 27.9 C 518.35 24.57 520.15 21.69 522.85 20.07 C 522.31 18.81 522.04 17.37 522.04 15.93 C 522.04 10.17 526.72 5.58 532.39 5.58 C 535.54 5.67 538.6 7.2 540.49 9.72 Z" style="fill-opacity: 0.5;"/>
  <path fill="#121136" d="M 526 25.02 L 526 25.11 C 526.09 25.2 526.18 25.2 526.27 25.29 C 526.81 25.56 527.35 25.65 527.89 25.65 C 528.97 25.65 529.69 25.11 529.69 24.12 C 529.69 23.22 528.88 22.95 528.16 22.68 L 528.07 22.68 C 527.53 22.5 527.08 22.32 527.08 21.96 C 527.08 21.69 527.35 21.42 527.8 21.42 C 528.25 21.42 528.79 21.6 529.15 21.78 C 529.15 21.78 529.24 21.87 529.33 21.78 C 529.33 21.69 529.51 21.24 529.51 21.15 C 529.51 21.06 529.51 21.06 529.42 21.06 C 528.97 20.79 528.43 20.61 527.89 20.61 L 527.8 20.61 C 526.81 20.61 526.09 21.24 526.09 22.05 C 526.09 22.95 526.9 23.22 527.62 23.49 L 527.71 23.49 C 528.25 23.67 528.7 23.76 528.7 24.12 C 528.7 24.48 528.43 24.75 527.89 24.75 C 527.71 24.75 527.08 24.75 526.45 24.3 C 526.36 24.3 526.36 24.21 526.27 24.21 C 526.27 24.21 526.18 24.12 526.09 24.3 L 526 25.02 Z M 542.02 25.02 L 542.02 25.11 C 542.11 25.2 542.2 25.2 542.29 25.29 C 542.83 25.56 543.37 25.65 543.91 25.65 C 544.99 25.65 545.71 25.11 545.71 24.12 C 545.71 23.22 544.9 22.95 544.18 22.68 L 544.09 22.68 C 543.55 22.5 543.1 22.32 543.1 21.96 C 543.1 21.69 543.37 21.42 543.82 21.42 C 544.27 21.42 544.81 21.6 545.17 21.78 C 545.17 21.78 545.26 21.87 545.35 21.78 C 545.35 21.69 545.53 21.24 545.53 21.15 C 545.53 21.06 545.53 21.06 545.44 21.06 C 544.99 20.79 544.45 20.61 543.91 20.61 L 543.82 20.61 C 542.83 20.61 542.11 21.24 542.11 22.05 C 542.11 22.95 542.92 23.22 543.64 23.49 L 543.73 23.49 C 544.27 23.67 544.72 23.76 544.72 24.12 C 544.72 24.48 544.45 24.75 543.91 24.75 C 543.73 24.75 543.1 24.75 542.47 24.3 C 542.38 24.3 542.38 24.21 542.29 24.21 C 542.29 24.21 542.2 24.12 542.11 24.3 L 542.02 25.02 Z" style="fill-opacity: 0.5;"/>
  <path fill="#121136" fill-rule="evenodd" d="M 553.45 21.42 C 553.63 21.69 553.81 21.96 553.9 22.23 C 553.99 22.5 553.99 22.86 553.99 23.22 C 553.99 23.58 553.99 23.94 553.9 24.21 C 553.81 24.57 553.63 24.84 553.45 25.02 C 553.27 25.29 553 25.47 552.73 25.56 C 552.46 25.65 552.1 25.74 551.74 25.74 C 551.38 25.74 551.02 25.65 550.75 25.56 C 550.48 25.38 550.21 25.2 550.03 25.02 L 550.026 25.015 C 549.847 24.746 549.669 24.478 549.58 24.21 C 549.49 23.94 549.49 23.58 549.49 23.22 C 549.49 22.86 549.49 22.5 549.58 22.23 C 549.67 21.87 549.85 21.6 550.03 21.42 C 550.21 21.15 550.48 20.97 550.75 20.88 C 551.02 20.79 551.38 20.7 551.74 20.7 C 552.1 20.7 552.46 20.79 552.73 20.88 C 553 21.06 553.27 21.24 553.45 21.42 Z M 552.73 24.48 C 552.91 24.21 553 23.76 553 23.22 C 553 22.68 552.91 22.23 552.73 21.96 C 552.55 21.69 552.28 21.51 551.83 21.51 C 551.38 21.51 551.11 21.69 550.93 21.96 C 550.75 22.23 550.66 22.68 550.66 23.22 C 550.66 23.76 550.75 24.21 550.93 24.48 C 551.11 24.75 551.38 24.93 551.83 24.93 C 552.28 24.93 552.55 24.75 552.73 24.48 Z" clip-rule="evenodd" style="fill-opacity: 0.5;"/>
  <path fill="#121136" d="M 561.37 24.75 C 561.37 24.66 561.28 24.66 561.28 24.66 C 561.19 24.75 561.01 24.75 560.83 24.75 L 560.29 24.75 C 559.84 24.75 559.48 24.66 559.21 24.39 C 558.94 24.12 558.85 23.67 558.85 23.13 C 558.85 22.59 558.94 22.23 559.21 21.96 C 559.39 21.69 559.75 21.51 560.2 21.51 C 560.56 21.51 560.83 21.51 561.19 21.69 C 561.19 21.69 561.28 21.69 561.28 21.6 C 561.37 21.42 561.46 21.24 561.46 20.97 C 561.46 20.88 561.46 20.88 561.37 20.88 C 561.28 20.79 561.01 20.79 560.74 20.7 C 560.56 20.7 560.29 20.61 560.02 20.61 C 559.66 20.61 559.3 20.7 559.03 20.79 C 558.76 20.88 558.49 21.06 558.31 21.33 C 558.13 21.6 557.95 21.78 557.86 22.14 C 557.77 22.41 557.68 22.77 557.68 23.13 C 557.68 23.85 557.86 24.48 558.31 24.93 C 558.67 25.38 559.3 25.65 560.11 25.65 C 560.56 25.65 561.1 25.56 561.37 25.38 C 561.37 25.38 561.46 25.38 561.37 25.29 L 561.37 24.75 Z" style="fill-opacity: 0.5;"/>
  <path fill="#121136" fill-rule="evenodd" d="M 565.69 21.33 C 565.78 21.42 565.96 21.78 566.05 22.05 C 566.23 22.77 566.14 23.31 566.05 23.49 C 566.05 23.58 565.96 23.58 565.96 23.58 L 562.9 23.58 C 562.9 24.03 562.99 24.3 563.26 24.57 C 563.53 24.75 563.89 24.93 564.34 24.93 C 565.06 24.93 565.42 24.75 565.6 24.66 C 565.6 24.66 565.69 24.66 565.69 24.75 L 565.87 25.29 C 565.96 25.38 565.87 25.47 565.87 25.47 C 565.69 25.56 565.24 25.74 564.34 25.74 C 563.98 25.74 563.53 25.65 563.26 25.56 C 562.9 25.38 562.63 25.2 562.45 25.02 C 562.27 24.75 562.09 24.48 562 24.21 C 561.91 23.94 561.82 23.58 561.82 23.22 C 561.82 22.86 561.91 22.5 562 22.23 C 562.09 21.96 562.27 21.69 562.45 21.42 C 562.63 21.24 562.9 20.97 563.17 20.88 C 563.44 20.79 563.8 20.7 564.16 20.7 C 564.52 20.7 564.79 20.79 565.06 20.88 C 565.33 20.97 565.51 21.15 565.69 21.33 Z M 563.26 21.96 C 563.08 22.14 562.99 22.41 562.99 22.68 L 565.24 22.68 C 565.24 22.41 565.15 22.14 565.06 21.96 C 564.79 21.69 564.61 21.51 564.16 21.51 C 563.71 21.51 563.44 21.69 563.26 21.96 Z M 540.94 21.33 C 541.03 21.42 541.21 21.78 541.3 22.05 C 541.48 22.77 541.39 23.31 541.3 23.49 C 541.3 23.58 541.21 23.58 541.21 23.58 L 538.15 23.58 C 538.15 24.03 538.24 24.3 538.51 24.57 C 538.78 24.75 539.14 24.93 539.59 24.93 C 540.31 24.93 540.67 24.75 540.85 24.66 C 540.85 24.66 540.94 24.66 540.94 24.75 L 541.12 25.29 C 541.21 25.38 541.12 25.47 541.12 25.47 C 540.94 25.56 540.49 25.74 539.59 25.74 C 539.23 25.74 538.78 25.65 538.51 25.56 C 538.15 25.38 537.88 25.2 537.7 25.02 C 537.52 24.75 537.34 24.48 537.25 24.21 C 537.16 23.94 537.07 23.58 537.07 23.22 C 537.07 22.86 537.16 22.5 537.25 22.23 C 537.34 21.96 537.52 21.69 537.7 21.42 C 537.88 21.24 538.15 20.97 538.42 20.88 C 538.69 20.79 539.05 20.7 539.41 20.7 C 539.77 20.7 540.04 20.79 540.31 20.88 C 540.58 20.97 540.76 21.15 540.94 21.33 Z M 538.51 21.96 C 538.33 22.14 538.24 22.41 538.24 22.68 L 540.49 22.68 C 540.49 22.41 540.4 22.14 540.31 21.96 C 540.04 21.69 539.86 21.51 539.41 21.51 C 538.96 21.51 538.69 21.69 538.51 21.96 Z M 532.3 22.5 L 532.75 22.5 C 532.75 22.5 533.02 22.59 533.38 22.59 L 533.38 22.5 C 533.38 22.14 533.29 21.87 533.11 21.78 C 532.858 21.658 532.58 21.596 532.3 21.6 C 532.3 21.6 531.58 21.51 530.95 21.87 L 530.86 21.87 C 530.86 21.87 530.77 21.87 530.77 21.78 L 530.59 21.15 C 530.5 21.06 530.59 21.06 530.59 21.06 C 530.86 20.79 531.58 20.7 531.58 20.7 C 531.76 20.61 532.12 20.61 532.39 20.61 C 533.02 20.61 533.47 20.79 533.83 21.06 C 534.1 21.33 534.28 21.78 534.28 22.41 L 534.28 25.2 C 534.28 25.2 534.28 25.29 534.19 25.29 C 534.19 25.29 534.1 25.38 534.01 25.38 C 533.96 25.43 533.8 25.452 533.622 25.478 C 533.477 25.498 533.321 25.52 533.2 25.56 C 532.93 25.65 532.66 25.65 532.3 25.65 C 532.03 25.65 531.76 25.65 531.49 25.56 C 531.28 25.489 531.076 25.402 530.88 25.3 L 530.86 25.29 L 530.852 25.283 C 530.76 25.19 530.587 25.015 530.5 24.84 C 530.41 24.66 530.32 24.39 530.32 24.12 C 530.32 23.85 530.41 23.58 530.5 23.4 C 530.59 23.13 530.77 22.95 530.95 22.86 L 530.97 22.85 C 531.143 22.764 531.32 22.676 531.58 22.59 C 531.76 22.5 532.03 22.5 532.3 22.5 Z M 531.391 24.676 C 531.427 24.696 531.46 24.721 531.49 24.75 C 531.49 24.714 531.532 24.735 531.62 24.778 C 531.758 24.844 532.007 24.965 532.39 25.02 C 532.84 25.02 533.2 24.93 533.2 24.93 L 533.2 23.49 C 533.2 23.49 532.84 23.4 532.39 23.4 C 531.76 23.31 531.49 23.58 531.49 23.58 C 531.31 23.76 531.22 23.94 531.22 24.21 C 531.22 24.3 531.22 24.48 531.31 24.57 C 531.31 24.625 531.344 24.646 531.391 24.676 Z" clip-rule="evenodd" style="fill-opacity: 0.5;"/>
  <path fill="#121136" d="M 557.68 20.97 C 557.68 20.88 557.68 20.88 557.59 20.88 C 557.5 20.88 557.23 20.79 557.05 20.79 C 556.69 20.79 556.42 20.79 556.24 20.88 C 556.06 20.97 555.88 21.15 555.7 21.24 L 555.7 20.88 C 555.7 20.79 555.7 20.79 555.61 20.79 L 554.8 20.79 C 554.71 20.79 554.71 20.79 554.71 20.88 L 554.71 25.47 C 554.71 25.56 554.71 25.56 554.8 25.56 L 555.61 25.56 C 555.7 25.56 555.7 25.56 555.7 25.47 L 555.7 23.13 C 555.7 22.86 555.7 22.5 555.79 22.32 C 555.88 22.14 555.97 21.96 556.06 21.87 C 556.15 21.78 556.33 21.69 556.42 21.6 C 556.6 21.6 556.69 21.51 556.87 21.51 L 557.23 21.51 C 557.32 21.51 557.32 21.51 557.32 21.42 C 557.5 21.42 557.68 21.06 557.68 20.97 Z M 550.03 18.81 C 549.94 18.81 549.85 18.72 549.76 18.72 L 549.31 18.72 C 548.77 18.72 548.32 18.9 547.96 19.17 C 547.69 19.44 547.42 19.98 547.33 20.61 L 547.33 20.79 L 546.61 20.79 C 546.61 20.79 546.52 20.79 546.52 20.88 L 546.43 21.51 C 546.43 21.6 546.43 21.6 546.52 21.6 L 547.24 21.6 L 546.52 25.47 C 546.43 25.74 546.43 26.01 546.34 26.19 C 546.25 26.37 546.25 26.55 546.16 26.64 C 546.07 26.73 545.98 26.82 545.89 26.82 C 545.8 26.82 545.62 26.91 545.53 26.91 L 545.26 26.91 C 545.17 26.91 545.17 26.91 545.08 26.82 C 545.08 26.82 544.99 26.82 544.99 26.91 C 544.99 27 544.81 27.45 544.72 27.54 C 544.72 27.63 544.72 27.63 544.81 27.63 C 544.9 27.63 544.99 27.72 545.08 27.72 L 545.53 27.72 C 545.8 27.72 546.07 27.72 546.25 27.63 C 546.43 27.54 546.61 27.45 546.79 27.27 C 546.97 27.09 547.06 26.82 547.15 26.55 C 547.24 26.28 547.33 25.92 547.42 25.47 L 548.14 21.51 L 549.13 21.51 C 549.13 21.51 549.22 21.51 549.22 21.42 L 549.31 20.79 C 549.31 20.7 549.31 20.7 549.22 20.7 L 548.23 20.7 L 548.41 19.98 C 548.5 19.8 548.59 19.71 548.59 19.62 C 548.68 19.53 548.77 19.53 548.86 19.44 C 548.95 19.44 549.04 19.35 549.22 19.35 L 549.67 19.35 C 549.76 19.35 549.76 19.35 549.76 19.26 L 550.03 18.63 C 550.12 18.81 550.12 18.81 550.03 18.81 Z M 536.26 25.47 C 536.26 25.56 536.26 25.56 536.17 25.56 L 535.36 25.56 C 535.27 25.56 535.27 25.56 535.27 25.47 L 535.27 18.9 C 535.27 18.81 535.27 18.81 535.36 18.81 L 536.17 18.81 C 536.26 18.81 536.26 18.81 536.26 18.9 L 536.26 25.47 Z" style="fill-opacity: 0.5;"/>
  <path fill="#fff" d="M 179.286 12.566 C 181.339 14.833 182.023 19.049 182.061 22.858 C 182.099 26.667 179.229 31.074 177.624 32.279 C 176.019 33.484 175.952 34.426 175.952 34.426 L 176.04 37.327 L 175.084 37.087 C 175.408 32.289 173.426 32.414 172.348 31.434 C 171.27 30.454 168.692 27.392 168.514 21.674 C 168.336 15.956 171.935 10.959 173.664 9.592 C 175.393 8.225 175.273 7.028 175.273 7.028 C 176.327 9.512 176.522 9.514 179.286 12.566 Z" style="fill-opacity: 0.5;"/>
</svg>
